<svg viewBox="1 1 16 16" fill="none" xmlns="http://www.w3.org/2000/svg">
  <path fill-rule="evenodd" clip-rule="evenodd"
    d="M3.875 2.375H14.125C14.9534 2.375 15.625 3.04657 15.625 3.875V14.125C15.625 14.9534 14.9534 15.625 14.125 15.625H3.875C3.04657 15.625 2.375 14.9534 2.375 14.125V3.875C2.375 3.04657 3.04657 2.375 3.875 2.375ZM0.875 3.875C0.875 2.21815 2.21815 0.875 3.875 0.875H14.125C15.7819 0.875 17.125 2.21815 17.125 3.875V14.125C17.125 15.7819 15.7819 17.125 14.125 17.125H3.875C2.21815 17.125 0.875 15.7819 0.875 14.125V3.875ZM12.1103 7.56093C12.3511 7.22387 12.273 6.75546 11.9359 6.5147C11.5989 6.27394 11.1305 6.35201 10.8897 6.68907L8.2793 10.3436L7.03033 9.09467C6.73744 8.80178 6.26256 8.80178 5.96967 9.09467C5.67678 9.38756 5.67678 9.86244 5.96967 10.1553L7.84467 12.0303C8.00056 12.1862 8.21715 12.2656 8.43686 12.2474C8.65657 12.2293 8.85716 12.1153 8.9853 11.9359L12.1103 7.56093Z"
    fill="black" />
</svg>