<svg viewBox="0 0 22 23" fill="none" xmlns="http://www.w3.org/2000/svg">
<g id="&#240;&#159;&#148;&#182; Icon">
<path id="&#240;&#159;&#148;&#185; Icon Color" fill-rule="evenodd" clip-rule="evenodd" d="M16.7752 5.73408C16.4177 5.37658 15.8402 5.37658 15.4827 5.73408L11.0002 10.2074L6.51766 5.72491C6.16016 5.36741 5.58266 5.36741 5.22516 5.72491C4.86766 6.08241 4.86766 6.65991 5.22516 7.01741L9.70766 11.4999L5.22516 15.9824C4.86766 16.3399 4.86766 16.9174 5.22516 17.2749C5.58266 17.6324 6.16016 17.6324 6.51766 17.2749L11.0002 12.7924L15.4827 17.2749C15.8402 17.6324 16.4177 17.6324 16.7752 17.2749C17.1327 16.9174 17.1327 16.3399 16.7752 15.9824L12.2927 11.4999L16.7752 7.01741C17.1235 6.66908 17.1235 6.08241 16.7752 5.73408Z" fill="white"/>
</g>
</svg>
