<svg viewBox="0 0 13 13" fill="currentColor" xmlns="http://www.w3.org/2000/svg">
  <path
    d="M10.9688 8.125H10.1562C10.0485 8.125 9.94517 8.1678 9.86899 8.24399C9.7928 8.32017 9.75 8.42351 9.75 8.53125V11.375H1.625V3.25H5.28125C5.38899 3.25 5.49233 3.2072 5.56851 3.13101C5.6447 3.05483 5.6875 2.95149 5.6875 2.84375V2.03125C5.6875 1.92351 5.6447 1.82017 5.56851 1.74399C5.49233 1.6678 5.38899 1.625 5.28125 1.625H1.21875C0.895517 1.625 0.585524 1.7534 0.356964 1.98196C0.128404 2.21052 0 2.52052 0 2.84375L0 11.7812C0 12.1045 0.128404 12.4145 0.356964 12.643C0.585524 12.8716 0.895517 13 1.21875 13H10.1562C10.4795 13 10.7895 12.8716 11.018 12.643C11.2466 12.4145 11.375 12.1045 11.375 11.7812V8.53125C11.375 8.42351 11.3322 8.32017 11.256 8.24399C11.1798 8.1678 11.0765 8.125 10.9688 8.125ZM12.3906 0H9.14062C8.59803 0 8.32686 0.657871 8.70898 1.04102L9.61619 1.94822L3.42773 8.13439C3.37092 8.19101 3.32585 8.25828 3.29509 8.33235C3.26434 8.40642 3.2485 8.48583 3.2485 8.56604C3.2485 8.64624 3.26434 8.72565 3.29509 8.79972C3.32585 8.87379 3.37092 8.94106 3.42773 8.99768L4.00334 9.57227C4.05995 9.62908 4.12722 9.67415 4.20129 9.70491C4.27536 9.73566 4.35478 9.7515 4.43498 9.7515C4.51518 9.7515 4.5946 9.73566 4.66867 9.70491C4.74274 9.67415 4.81001 9.62908 4.86662 9.57227L11.052 3.38508L11.959 4.29102C12.3398 4.67188 13 4.40527 13 3.85938V0.609375C13 0.447759 12.9358 0.292762 12.8215 0.178482C12.7072 0.0642018 12.5522 0 12.3906 0Z" />
</svg>