<svg viewBox="0 0 24 24" fill="none" xmlns="http://www.w3.org/2000/svg">
    <g id="4. Icons / Social / Facebook">
        <path id="&#240;&#159;&#148;&#185; Icon Color 2" fill-rule="evenodd" clip-rule="evenodd"
            d="M6 2.0127C3.79086 2.0127 2 3.80355 2 6.01269V18.1413C2 20.3504 3.79086 22.1413 6 22.1413H11.8808V15.2551H9.516V12.5714H11.8808V10.5924C11.8808 8.29553 13.3119 7.04484 15.403 7.04484C16.4047 7.04484 17.265 7.11819 17.516 7.15079V9.5514L16.066 9.55215C14.929 9.55215 14.709 10.0819 14.709 10.8584V12.5722H17.4207L17.0677 15.2558H14.709V22.1413H18C20.2091 22.1413 22 20.3504 22 18.1413V6.0127C22 3.80356 20.2091 2.0127 18 2.0127H6Z"
            fill="white" />
    </g>
</svg>