<svg  viewBox="0 0 20 20" fill="currentColor" xmlns="http://www.w3.org/2000/svg">
<path d="M9.764 17.8333C8.61122 17.8333 7.52789 17.6146 6.514 17.1771C5.50011 16.7396 4.61816 16.1458 3.86816 15.3958C3.11816 14.6458 2.52441 13.7639 2.08691 12.75C1.64941 11.7361 1.43066 10.6528 1.43066 9.49999C1.43066 8.34721 1.64941 7.26388 2.08691 6.24999C2.52441 5.2361 3.11816 4.35416 3.86816 3.60416C4.61816 2.85416 5.50011 2.26041 6.514 1.82291C7.52789 1.38541 8.61122 1.16666 9.764 1.16666C10.9168 1.16666 12.0001 1.38541 13.014 1.82291C14.0279 2.26041 14.9098 2.85416 15.6598 3.60416C16.4098 4.35416 17.0036 5.2361 17.4411 6.24999C17.8786 7.26388 18.0973 8.34721 18.0973 9.49999C18.0973 10.6528 17.8786 11.7361 17.4411 12.75C17.0036 13.7639 16.4098 14.6458 15.6598 15.3958C14.9098 16.1458 14.0279 16.7396 13.014 17.1771C12.0001 17.6146 10.9168 17.8333 9.764 17.8333ZM8.86816 16.5625V14.8542C8.38205 14.8542 7.97233 14.6736 7.639 14.3125C7.30566 13.9514 7.139 13.5278 7.139 13.0417V12.125L2.86816 7.85416C2.79872 8.13193 2.75011 8.40624 2.72233 8.67707C2.69455 8.94791 2.68066 9.22221 2.68066 9.49999C2.68066 11.3055 3.26747 12.8819 4.44108 14.2292C5.61469 15.5764 7.09039 16.3542 8.86816 16.5625ZM14.9932 14.3125C15.2987 13.9792 15.5661 13.625 15.7952 13.25C16.0244 12.875 16.2189 12.4826 16.3786 12.0729C16.5383 11.6632 16.6564 11.243 16.7327 10.8125C16.8091 10.3819 16.8473 9.94443 16.8473 9.49999C16.8473 8.02777 16.4446 6.69096 15.639 5.48957C14.8334 4.28818 13.7571 3.40971 12.4098 2.85416V3.22916C12.4098 3.71527 12.2432 4.13888 11.9098 4.49999C11.5765 4.8611 11.1668 5.04166 10.6807 5.04166H8.86816V6.85416C8.86816 7.09027 8.77441 7.28471 8.58691 7.43749C8.39941 7.59027 8.18761 7.66666 7.9515 7.66666H6.22233V9.49999H11.5973C11.8334 9.49999 12.0279 9.59027 12.1807 9.77082C12.3334 9.95138 12.4098 10.1597 12.4098 10.3958V13.0417H13.3057C13.7084 13.0417 14.0626 13.1597 14.3682 13.3958C14.6737 13.6319 14.8821 13.9375 14.9932 14.3125Z"/>
</svg>
