<svg  viewBox="0 0 38 45" fill="none" xmlns="http://www.w3.org/2000/svg">
<path d="M19.1041 44.5146V41.2855H34.4166V38.4209H26.7083V22.9001H34.4166V19.5667C34.4166 15.3653 32.9236 11.7282 29.9375 8.65527C26.9513 5.58236 23.3402 4.0459 19.1041 4.0459C14.868 4.0459 11.2222 5.58236 8.16663 8.65527C5.11107 11.7282 3.58329 15.3653 3.58329 19.5667V22.9001H11.2916V38.4209H3.58329C2.68051 38.4209 1.89058 38.0824 1.2135 37.4053C0.536418 36.7282 0.197876 35.9209 0.197876 34.9834V19.6188C0.197876 17.0146 0.692668 14.5581 1.68225 12.249C2.67183 9.93999 4.01732 7.91743 5.71871 6.18131C7.4201 4.4452 9.42531 3.08236 11.7343 2.09277C14.0434 1.10319 16.5 0.608398 19.1041 0.608398C21.7083 0.608398 24.1475 1.10319 26.4218 2.09277C28.6961 3.08236 30.684 4.43652 32.3854 6.15527C34.0868 7.87402 35.4236 9.88791 36.3958 12.1969C37.368 14.506 37.8541 16.9626 37.8541 19.5667V41.0771C37.8541 42.0146 37.5156 42.8219 36.8385 43.499C36.1614 44.1761 35.3541 44.5146 34.4166 44.5146H19.1041ZM3.58329 34.9834H7.85413V26.3376H3.58329V34.9834ZM30.1458 34.9834H34.4166V26.3376H30.1458V34.9834Z" fill="#0D2126"/>
</svg>
