<svg viewBox="0 0 24 24" fill="none" xmlns="http://www.w3.org/2000/svg">
    <g id="4. Icons / Social / Facebook">
        <path id="&#240;&#159;&#148;&#185; Icon Color" fill-rule="evenodd" clip-rule="evenodd"
            d="M12 2.0127C9.28417 2.0127 8.94417 2.02444 7.8775 2.07308C4.24583 2.24082 2.2275 4.26877 2.06083 7.92714C2.01167 9.00151 2 9.34369 2 12.077C2 14.8103 2.01167 15.1533 2.06 16.2268C2.22667 19.8818 4.24167 21.9132 7.87667 22.0809C8.94417 22.1295 9.28417 22.1413 12 22.1413C14.7158 22.1413 15.0567 22.1295 16.1233 22.0809C19.7517 21.9132 21.775 19.8852 21.9392 16.2268C21.9883 15.1533 22 14.8103 22 12.077C22 9.34369 21.9883 9.00151 21.94 7.92798C21.7767 4.27632 19.7592 2.24166 16.1242 2.07392C15.0567 2.02444 14.7158 2.0127 12 2.0127ZM12 6.90897C9.16417 6.90897 6.865 9.22292 6.865 12.077C6.865 14.9311 9.16417 17.2458 12 17.2458C14.8358 17.2458 17.135 14.9319 17.135 12.077C17.135 9.22292 14.8358 6.90897 12 6.90897ZM12 15.4317C10.1592 15.4317 8.66667 13.9305 8.66667 12.077C8.66667 10.2243 10.1592 8.72222 12 8.72222C13.8408 8.72222 15.3333 10.2243 15.3333 12.077C15.3333 13.9305 13.8408 15.4317 12 15.4317ZM17.3383 5.49746C16.675 5.49746 16.1375 6.03841 16.1375 6.70517C16.1375 7.37193 16.675 7.91289 17.3383 7.91289C18.0008 7.91289 18.5375 7.37193 18.5375 6.70517C18.5375 6.03841 18.0008 5.49746 17.3383 5.49746Z"
            fill="white" />
    </g>
</svg>