<svg viewBox="0 0 24 24" fill="none" xmlns="http://www.w3.org/2000/svg">
    <g id="Symbols">
        <g id="Footer/Tablet">
            <g id="Social-Icons">
                <g id="Linkedin">
                    <path id="Combined-Shape"
                        d="M0 2C0 0.89543 0.895431 0 2 0H21C22.1046 0 23 0.895431 23 2V21C23 22.1046 22.1046 23 21 23H2C0.89543 23 0 22.1046 0 21V2ZM8.12667 10.8292C8.12667 10.1094 7.54314 9.52583 6.82333 9.52583C6.10352 9.52583 5.52 10.1094 5.52 10.8292V16.0521C5.52 16.7719 6.10352 17.3554 6.82333 17.3554C7.54314 17.3554 8.12667 16.7719 8.12667 16.0521V10.8292ZM8.29917 7.10125C8.28 6.33458 7.73375 5.75 6.8425 5.75C5.95125 5.75 5.36667 6.33458 5.36667 7.10125C5.36667 7.86792 5.93208 8.4525 6.80896 8.4525H6.82333C7.73375 8.4525 8.29917 7.84875 8.29917 7.10125ZM17.5303 12.8608C17.5297 12.862 17.5279 12.8615 17.5279 12.8602C17.526 10.4585 16.2425 9.33896 14.5283 9.33896C13.6731 9.33896 13.1103 9.62954 12.7237 9.97707C12.5364 10.1453 12.1804 10.0303 12.1804 9.77859C12.1804 9.63899 12.0673 9.52583 11.9277 9.52583H10.9069C10.1807 9.52583 9.58538 10.1307 9.58741 10.8569C9.59152 12.3243 9.58457 14.6178 9.57917 16.0511C9.57645 16.7717 10.1597 17.3554 10.8802 17.3554C11.5983 17.3554 12.1804 16.7733 12.1804 16.0552V12.9806C12.1804 12.7458 12.1996 12.511 12.2667 12.3433C12.4535 11.8737 12.8848 11.3898 13.6035 11.3898C14.5475 11.3898 14.926 12.1085 14.926 13.1579V16.0425C14.926 16.7623 15.5096 17.3458 16.2294 17.3458H16.6754C17.1489 17.3458 17.5327 16.962 17.5327 16.4885V12.8614C17.5327 12.8601 17.5309 12.8596 17.5303 12.8608Z"
                        fill="white" />
                </g>
            </g>
        </g>
    </g>
</svg>