<svg viewBox="0 0 24 24" fill="none" xmlns="http://www.w3.org/2000/svg">
    <g id="4. Icons / Social / Linkedin">
        <path id="Vector"
            d="M6.4773 22H2.33073V8.64714H6.4773V22ZM4.40151 6.82571C3.07575 6.82571 2 5.72714 2 4.40143C2 3.76453 2.25302 3.15372 2.70339 2.70336C3.15376 2.25301 3.76459 2 4.40151 2C5.03844 2 5.64927 2.25301 6.09964 2.70336C6.55001 3.15372 6.80303 3.76453 6.80303 4.40143C6.80303 5.72714 5.72728 6.82571 4.40151 6.82571ZM21.9964 22H17.8591V15.5C17.8591 13.9507 17.8277 11.9643 15.7033 11.9643C13.5476 11.9643 13.2168 13.6471 13.2168 15.3886V22H9.07454V8.64714H13.0511V10.4686H13.109C13.6626 9.41929 15.0148 8.31214 17.032 8.31214C21.2285 8.31214 22 11.0757 22 14.665V22H21.9964Z"
            fill="#0D2126" />
    </g>
</svg>