<svg width="42" height="41" viewBox="0 0 42 41" fill="none" xmlns="http://www.w3.org/2000/svg">
<path d="M21 3.41666C28.35 3.41666 35 8.91749 35 17.425C35 23.0967 30.3275 29.8104 21 37.5833C11.6725 29.8104 7 23.0967 7 17.425C7 8.91749 13.65 3.41666 21 3.41666Z" fill="#EDB83C"/>
<path d="M17.5 17.0833C17.5 18.9625 19.075 20.5 21 20.5C22.925 20.5 24.5 18.9625 24.5 17.0833C24.5 15.2042 22.925 13.6667 21 13.6667C19.075 13.6667 17.5 15.2042 17.5 17.0833Z" fill="white"/>
<path d="M21 3.66666C28.2255 3.66666 34.75 9.06876 34.75 17.425C34.75 20.1918 33.6098 23.2386 31.2925 26.5735C29.0025 29.8692 25.5739 33.43 21 37.2576C16.4261 33.43 12.9975 29.8692 10.7075 26.5735C8.39016 23.2386 7.25 20.1918 7.25 17.425C7.25 9.06876 13.7745 3.66666 21 3.66666ZM17.25 17.0833C17.25 19.1062 18.9426 20.75 21 20.75C23.0574 20.75 24.75 19.1062 24.75 17.0833C24.75 15.0604 23.0574 13.4167 21 13.4167C18.9426 13.4167 17.25 15.0604 17.25 17.0833ZM21 20.25C19.2074 20.25 17.75 18.8188 17.75 17.0833C17.75 15.3479 19.2074 13.9167 21 13.9167C22.7926 13.9167 24.25 15.3479 24.25 17.0833C24.25 18.8188 22.7926 20.25 21 20.25Z" stroke="#0D2126" stroke-width="0.5"/>
</svg>
