<svg xmlns="http://www.w3.org/2000/svg" viewBox="0 0 16 16" fill="currentColor">
  <path
    d="m14.92034,15.86181l-5.7531,-5.7531c-0.4375,0.3791 -0.9476,0.6745 -1.5304,0.8859c-0.5827,0.2115 -1.2028,0.3172 -1.8602,0.3172c-1.5774,0 -2.9124,-0.5469 -4.0049,-1.6406c-1.0926,-1.0938 -1.6389,-2.4136 -1.6389,-3.9594c0,-1.5458 0.5469,-2.8656 1.6406,-3.9594c1.0938,-1.0937 2.4172,-1.6406 3.9704,-1.6406c1.5531,0 2.8729,0.5469 3.9593,1.6406c1.0865,1.0938 1.6297,2.4147 1.6297,3.9627c0,0.6249 -0.1021,1.229 -0.3062,1.8123c-0.2042,0.5834 -0.5104,1.1302 -0.9188,1.6406l5.775,5.7313l-0.9625,0.9625zm-9.1656,-5.8625c1.1849,0 2.192,-0.4193 3.0215,-1.2578c0.8294,-0.8386 1.2441,-1.8485 1.2441,-3.0297c0,-1.1813 -0.4147,-2.1911 -1.2441,-3.0297c-0.8295,-0.8385 -1.8366,-1.2578 -3.0215,-1.2578c-1.1971,0 -2.2145,0.4193 -3.0525,1.2578c-0.8379,0.8386 -1.2569,1.8484 -1.2569,3.0297c0,1.1812 0.419,2.1911 1.2569,3.0297c0.838,0.8385 1.8554,1.2578 3.0525,1.2578z"
    id="Vector" />
  <path
    d="m14.92034,15.86181l-5.7531,-5.7531c-0.4375,0.3791 -0.9476,0.6745 -1.5304,0.8859c-0.5827,0.2115 -1.2028,0.3172 -1.8602,0.3172c-1.5774,0 -2.9124,-0.5469 -4.0049,-1.6406c-1.0926,-1.0938 -1.6389,-2.4136 -1.6389,-3.9594c0,-1.5458 0.5469,-2.8656 1.6406,-3.9594c1.0938,-1.0937 2.4172,-1.6406 3.9704,-1.6406c1.5531,0 2.8729,0.5469 3.9593,1.6406c1.0865,1.0938 1.6297,2.4147 1.6297,3.9627c0,0.6249 -0.1021,1.229 -0.3062,1.8123c-0.2042,0.5834 -0.5104,1.1302 -0.9188,1.6406l5.775,5.7313l-0.9625,0.9625zm-9.1656,-5.8625c1.1849,0 2.192,-0.4193 3.0215,-1.2578c0.8294,-0.8386 1.2441,-1.8485 1.2441,-3.0297c0,-1.1813 -0.4147,-2.1911 -1.2441,-3.0297c-0.8295,-0.8385 -1.8366,-1.2578 -3.0215,-1.2578c-1.1971,0 -2.2145,0.4193 -3.0525,1.2578c-0.8379,0.8386 -1.2569,1.8484 -1.2569,3.0297c0,1.1812 0.419,2.1911 1.2569,3.0297c0.838,0.8385 1.8554,1.2578 3.0525,1.2578z"
    id="svg_3" />
</svg>