<svg  viewBox="0 0 191 31" fill="currentColor" xmlns="http://www.w3.org/2000/svg">
<path d="M23.1016 17.1611V7.94141H27.439V16.8503C27.439 19.1984 28.4636 20.6487 30.5127 20.6833C32.6985 20.7178 33.6548 19.2675 33.6548 16.8503V7.94141H37.9922V17.1957C37.9922 21.3393 34.9526 24.5852 30.5127 24.5507C25.7655 24.5162 23.1016 21.4429 23.1016 17.1611Z" />
<path d="M40.0801 19.3021H44.2126C44.4175 20.5452 45.5104 21.1322 46.7057 21.1322C47.9011 21.1322 48.6866 20.5452 48.6866 19.751C48.6866 17.1267 40.4899 18.7496 40.4899 12.465C40.4899 9.7716 42.7099 7.59617 46.3301 7.59617C49.8478 7.56164 52.2385 9.46083 52.4776 12.6377H48.4134C48.2426 11.6708 47.4913 11.0147 46.3301 11.0147C45.1689 11.0147 44.4858 11.6363 44.4858 12.465C44.4858 14.9858 52.785 13.5355 52.785 19.751C52.785 22.6516 49.9844 24.5508 46.7057 24.5508C42.9831 24.5508 40.3191 22.3753 40.0801 19.3021Z" />
<path d="M54.7637 2.6934C54.7637 1.20858 55.9932 0 57.4959 0C58.9986 0 60.194 1.20858 60.194 2.6934C60.194 4.17822 58.9645 5.35227 57.4959 5.35227C56.0273 5.35227 54.7637 4.17822 54.7637 2.6934ZM55.3443 24.1715V7.94208H59.6475V24.1715H55.3443Z" />
<path d="M62.4141 16.0567C62.4141 11.2569 66.0001 7.59668 70.9864 7.59668C75.9728 7.59668 79.5588 11.2569 79.5588 16.0567C79.5588 20.8565 75.9728 24.5513 70.9864 24.5513C66.0001 24.5513 62.4141 20.8565 62.4141 16.0567ZM75.2897 16.0567C75.2897 13.3288 73.4796 11.3951 70.9864 11.3951C68.4933 11.3951 66.6832 13.3288 66.6832 16.0567C66.6832 18.7847 68.4933 20.7184 70.9864 20.7184C73.4796 20.7184 75.2897 18.8192 75.2897 16.0567Z" />
<path d="M81.6426 24.1715V14.9517C81.6426 10.6699 84.3407 7.59668 89.1562 7.59668C93.9718 7.59668 96.6357 10.6699 96.6357 14.9517V24.1715H92.3324V15.297C92.3324 12.9144 91.2737 11.4296 89.1562 11.4296C87.0387 11.4296 85.98 12.9144 85.98 15.297V24.1715H81.6426Z" />
<path d="M111.619 11.9391L110.526 15.8756H118.458C117.877 18.4309 115.35 20.3646 111.866 20.3646C107.051 20.3646 103.874 17.0842 103.874 12.388C103.874 7.69185 107.153 4.48912 111.491 4.48912C114.633 4.48912 116.716 6.1466 117.706 8.25297H122.556C121.292 3.48773 117.194 0.276367 111.491 0.276367C104.557 0.276367 99.4004 5.45598 99.4004 12.388C99.4004 19.3201 104.455 24.5429 111.866 24.5429C112.054 24.5429 112.233 24.5429 112.413 24.5256C118.065 24.1889 122.659 18.6467 122.641 12.388V11.9391H111.619Z" />
<path d="M126.836 24.1715V14.6064C126.836 10.7044 129.09 7.59668 133.598 7.59668C134.418 7.59668 135.033 7.66574 135.75 7.83839V11.7749C135.238 11.7404 134.794 11.7404 134.589 11.7404C132.198 11.7404 131.173 12.8454 131.173 15.0899V24.1715H126.836Z" />
<path d="M136.875 16.0567C136.875 11.2569 140.461 7.59668 145.447 7.59668C150.434 7.59668 154.02 11.2569 154.02 16.0567C154.02 20.8565 150.434 24.5513 145.447 24.5513C140.461 24.5513 136.875 20.8565 136.875 16.0567ZM149.751 16.0567C149.751 13.3288 147.941 11.3951 145.447 11.3951C142.954 11.3951 141.144 13.3288 141.144 16.0567C141.144 18.7847 142.954 20.7184 145.447 20.7184C147.941 20.7184 149.751 18.8192 149.751 16.0567Z" />
<path d="M156.105 17.1611V7.94141H160.443V16.8503C160.443 19.1984 161.467 20.6487 163.517 20.6833C165.702 20.7178 166.659 19.2675 166.659 16.8503V7.94141H170.996V17.1957C170.996 21.3393 167.957 24.5852 163.517 24.5507C158.769 24.5162 156.105 21.4429 156.105 17.1611Z" />
<path d="M191 16.0567C191 21.6507 187.312 24.5513 183.623 24.5513C181.301 24.5513 179.525 23.5154 178.501 21.7198V31.0085H174.197V7.94199H178.022L178.398 10.6009C179.389 8.70166 181.233 7.59668 183.623 7.59668C187.312 7.59668 191 10.4627 191 16.0567ZM186.731 16.0567C186.731 13.2252 184.921 11.4296 182.531 11.4296C180.584 11.4296 178.466 13.018 178.466 16.0567C178.466 19.2681 180.516 20.7184 182.531 20.7184C184.921 20.7184 186.731 18.9573 186.731 16.0567Z" />
<path d="M23.2404 0.62207L16.5635 24.1721H11.6797L18.3566 0.62207H23.2404Z" />
<path d="M6.67689 24.1711L0 0.621094H4.88386L11.5608 24.1711H6.67689Z" />
<path d="M123.258 24.1712V11.9473H119.364V24.1712H123.258Z" />
</svg>
