<svg id="Captana_Sensor_AI" data-name="Captana Sensor AI" xmlns="http://www.w3.org/2000/svg" viewBox="0 0 573.17 120">
  <defs>
    <style>
      .cls-1 {
        fill: #2f90fb;
      }

      .cls-2 {
        fill: #425052;
      }
    </style>
  </defs>
  <g>
    <path d="m150.83,32.86c0-14.07,10.5-24.57,24.5-24.57,11.62,0,20.09,6.65,22.33,16.45h-9.24c-2.03-4.41-6.3-7.91-13.09-7.91-8.68,0-15.33,6.86-15.33,16.03s6.65,16.03,15.33,16.03c6.79,0,11.06-3.5,13.09-7.91h9.24c-2.24,9.8-10.71,16.52-22.33,16.52-14,0-24.5-10.57-24.5-24.64Z"/>
    <path d="m227.34,23.83h7.56v32.9h-7.84l-.56-5.04c-1.89,3.64-5.74,5.81-10.85,5.81-7.63,0-15.26-5.88-15.26-17.22s7.63-17.15,15.26-17.15c5.18,0,9.03,2.17,10.92,5.88l.77-5.18Zm-.98,16.45c0-6.02-4.34-9.38-8.4-9.38-4.97,0-8.82,3.64-8.82,9.38s3.92,9.45,8.82,9.45c4.2,0,8.4-3.08,8.4-9.45Z"/>
    <path d="m277.04,40.28c0,11.34-7.56,17.22-15.12,17.22-4.76,0-8.4-2.1-10.5-5.74v18.83h-8.82V23.83h7.84l.77,5.39c2.03-3.85,5.81-6.09,10.71-6.09,7.56,0,15.12,5.81,15.12,17.15Zm-8.75,0c0-5.74-3.71-9.38-8.61-9.38-3.99,0-8.33,3.22-8.33,9.38,0,6.51,4.2,9.45,8.33,9.45,4.9,0,8.61-3.57,8.61-9.45Z"/>
    <path d="m300.07,49.38v7.35c-1.61.35-2.94.56-4.97.56-8.12,0-14-4.62-14-14.42V13.26h8.89v10.57h9.87v7.28h-9.87v10.85c0,5.32,1.68,7.49,7.7,7.49.84,0,1.19,0,2.38-.07Z"/>
    <path d="m329.82,23.83h7.56v32.9h-7.84l-.56-5.04c-1.89,3.64-5.74,5.81-10.85,5.81-7.63,0-15.26-5.88-15.26-17.22s7.63-17.15,15.26-17.15c5.18,0,9.03,2.17,10.92,5.88l.77-5.18Zm-.98,16.45c0-6.02-4.34-9.38-8.4-9.38-4.97,0-8.82,3.64-8.82,9.38s3.92,9.45,8.82,9.45c4.2,0,8.4-3.08,8.4-9.45Z"/>
    <path d="m343.96,56.73v-18.69c0-8.68,5.53-14.91,15.4-14.91s15.33,6.23,15.33,14.91v18.69h-8.82v-17.99c0-4.83-2.17-7.84-6.51-7.84s-6.51,3.01-6.51,7.84v17.99h-8.89Z"/>
    <path d="m405.56,23.83h7.56v32.9h-7.84l-.56-5.04c-1.89,3.64-5.74,5.81-10.85,5.81-7.63,0-15.26-5.88-15.26-17.22s7.63-17.15,15.26-17.15c5.18,0,9.03,2.17,10.92,5.88l.77-5.18Zm-.98,16.45c0-6.02-4.34-9.38-8.4-9.38-4.97,0-8.82,3.64-8.82,9.38s3.92,9.45,8.82,9.45c4.2,0,8.4-3.08,8.4-9.45Z"/>
  </g>
  <path class="cls-1" d="m92.57,27.37h-13.68l-18.71,65.27h13.68l18.71-65.27Zm-32.74,65.27L41.12,27.37h-13.68l18.71,65.27h13.68ZM100.83,0H19.17C8.58,0,0,8.58,0,19.17v81.67c0,10.59,8.58,19.17,19.17,19.17h81.67c10.59,0,19.17-8.58,19.17-19.17V19.17C120,8.58,111.42,0,100.83,0Zm10.04,110.88H9.12V9.13h101.75v101.75Z"/>
  <g>
    <path class="cls-2" d="m160.29,108.64c-2.25-1.4-4.04-3.36-5.35-5.86-1.32-2.51-1.96-5.4-1.96-8.67s.64-6.16,1.96-8.67c1.32-2.51,3.1-4.46,5.4-5.86s4.89-2.08,7.78-2.08c2.42,0,4.63.47,6.59,1.4,1.96.93,3.61,2.21,4.93,3.87s2.25,3.57,2.8,5.74h-4.46c-.81-2.25-2.04-4.04-3.7-5.35s-3.7-2-6.16-2c-2.08,0-3.95.55-5.57,1.66-1.62,1.11-2.85,2.63-3.74,4.59-.89,1.96-1.32,4.21-1.32,6.71s.47,4.76,1.36,6.71,2.12,3.48,3.7,4.59c1.57,1.11,3.36,1.66,5.35,1.66,2.59,0,4.76-.64,6.46-1.91,1.7-1.27,2.97-3.1,3.78-5.48h4.46c-1.06,3.61-2.85,6.33-5.35,8.2-2.51,1.87-5.61,2.8-9.31,2.8-2.85,0-5.4-.68-7.65-2.08v.04Z"/>
    <path class="cls-2" d="m191.06,109.19c-1.7-.98-2.97-2.38-3.87-4.16s-1.36-3.87-1.36-6.2.47-4.42,1.36-6.21c.89-1.78,2.21-3.19,3.91-4.16s3.65-1.49,5.86-1.49,4.17.51,5.82,1.49,2.93,2.38,3.82,4.16c.89,1.79,1.36,3.87,1.36,6.21s-.47,4.42-1.36,6.2-2.17,3.19-3.82,4.16c-1.66.98-3.61,1.49-5.82,1.49s-4.16-.51-5.86-1.49h-.04Zm9.43-2.46c1.02-.72,1.79-1.74,2.34-3.06.55-1.32.81-2.89.81-4.67s-.25-3.36-.81-4.67c-.55-1.32-1.32-2.34-2.34-3.06s-2.25-1.11-3.65-1.11-2.63.34-3.66,1.06c-1.02.72-1.78,1.74-2.34,3.06s-.81,2.85-.81,4.63.25,3.31.81,4.63,1.36,2.34,2.38,3.06,2.25,1.06,3.65,1.06,2.63-.38,3.66-1.11l-.04.17Z"/>
    <path class="cls-2" d="m242.52,88.07c1.15.76,2,1.83,2.59,3.19.6,1.36.89,2.93.89,4.72v14.19h-4.16v-13.56c0-2.25-.42-3.91-1.28-4.97-.85-1.06-2.12-1.61-3.78-1.61s-2.97.55-3.82,1.66-1.27,2.8-1.27,5.1v13.47h-4.17v-13.56c0-2.25-.42-3.91-1.27-4.97-.85-1.06-2.12-1.61-3.78-1.61s-2.97.55-3.83,1.66c-.85,1.1-1.27,2.8-1.27,5.1v13.47h-4.17v-22.78h4.17v4.63c.55-1.53,1.4-2.76,2.51-3.7,1.11-.93,2.55-1.4,4.29-1.4,1.23,0,2.34.25,3.31.77.98.51,1.79,1.19,2.42,2.04.64.85,1.1,1.79,1.4,2.8.55-1.61,1.44-2.97,2.63-4.08,1.19-1.11,2.72-1.66,4.59-1.66,1.61,0,2.97.38,4.12,1.15l-.13-.04Z"/>
    <path class="cls-2" d="m269.72,88.41c1.49,1.02,2.63,2.42,3.48,4.21.85,1.79,1.27,3.83,1.27,6.12s-.42,4.33-1.27,6.12c-.85,1.78-2,3.19-3.48,4.21-1.49,1.02-3.15,1.53-4.97,1.53-1.15,0-2.25-.21-3.31-.68s-2-1.1-2.85-1.91c-.85-.81-1.49-1.74-1.95-2.8v13.3h-4.17v-31.11h4.17v5.52c.38-1.06.93-2.04,1.66-2.93s1.61-1.61,2.68-2.17,2.29-.85,3.66-.85c1.83,0,3.48.51,4.97,1.53l.13-.08Zm-2.68,18.23c1.02-.72,1.79-1.74,2.34-3.06.55-1.32.81-2.89.81-4.67s-.25-3.36-.81-4.67c-.55-1.32-1.32-2.34-2.34-3.06s-2.25-1.11-3.65-1.11-2.63.34-3.66,1.06c-1.02.72-1.78,1.74-2.34,3.06s-.81,2.85-.81,4.63.25,3.31.81,4.63,1.36,2.34,2.38,3.06,2.25,1.06,3.65,1.06,2.63-.38,3.66-1.11l-.04.17Z"/>
    <path class="cls-2" d="m298.28,87.39v22.78h-4.16v-4.55c-.55,1.45-1.4,2.63-2.59,3.57-1.19.94-2.68,1.4-4.42,1.4s-3.06-.38-4.25-1.15c-1.19-.76-2.08-1.83-2.68-3.19-.59-1.36-.89-2.93-.89-4.67v-14.19h4.16v13.56c0,2.25.47,3.91,1.4,5.01.94,1.11,2.25,1.66,3.95,1.66s3.02-.55,3.95-1.66c.93-1.1,1.4-2.8,1.4-5.06v-13.47l4.12-.04Z"/>
    <path class="cls-2" d="m316.94,110.21h-2.97c-1.36,0-2.55-.21-3.61-.68-1.06-.47-1.91-1.15-2.51-2.08-.59-.93-.89-2.08-.89-3.48v-13.39h-4.8v-3.15h4.8v-5.4h4.17v5.4h5.78v3.15h-5.78v13.39c0,1.15.3,1.96.85,2.42.55.47,1.4.68,2.51.68h2.55l-.08,3.14Z"/>
    <path class="cls-2" d="m323.87,100.14c.17,2.42.85,4.29,2,5.61s2.68,1.95,4.59,1.95c1.57,0,2.85-.34,3.78-1.02.93-.68,1.66-1.7,2.12-3.02h4.25c-.64,2.38-1.83,4.17-3.57,5.35-1.74,1.19-3.91,1.79-6.54,1.79-2.25,0-4.16-.51-5.78-1.53-1.62-1.02-2.85-2.42-3.7-4.21-.85-1.78-1.27-3.82-1.27-6.12s.42-4.38,1.27-6.16c.85-1.78,2.08-3.19,3.7-4.21,1.62-1.02,3.53-1.53,5.74-1.53s3.99.47,5.61,1.4c1.61.93,2.89,2.29,3.78,4.04.89,1.74,1.36,3.74,1.36,6.03,0,.3-.04.81-.08,1.53l-17.25.08Zm2.08-8.29c-1.15,1.19-1.83,2.89-2.08,5.14h13c-.09-1.36-.38-2.55-.94-3.57s-1.32-1.83-2.25-2.42c-.93-.6-2-.89-3.23-.89-1.83,0-3.32.59-4.46,1.79l-.04-.04Z"/>
    <path class="cls-2" d="m350.52,92.32c1.15-3.57,3.66-5.35,7.52-5.35v4.12h-1.28c-1.45,0-2.59.17-3.48.51s-1.57.89-2.04,1.7c-.47.81-.68,1.87-.68,3.19v13.73h-4.17v-22.78h4.17v4.89h-.04Z"/>
    <path class="cls-2" d="m394.08,77.91h4.72l-11.05,32.3h-8.97l-11.05-32.3h4.72l10.84,32.13,10.79-32.13Z"/>
    <path class="cls-2" d="m402.15,83.52v-5.61h4.5v5.61h-4.5Zm.17,26.69v-22.78h4.17v22.78h-4.17Z"/>
    <path class="cls-2" d="m416.26,110.04c-1.4-.55-2.55-1.36-3.44-2.42-.89-1.06-1.45-2.38-1.66-3.91h4.25c.3,1.49.93,2.55,1.91,3.19.98.64,2.12.93,3.44.93,1.74,0,3.1-.3,4.04-.89s1.4-1.44,1.4-2.51c0-.68-.13-1.28-.42-1.74-.3-.47-.76-.85-1.4-1.15-.64-.3-1.53-.6-2.68-.85l-3.19-.68c-2.08-.47-3.7-1.19-4.89-2.17-1.19-.98-1.78-2.29-1.78-3.95,0-1.32.38-2.46,1.19-3.49.81-1.02,1.91-1.83,3.27-2.38,1.36-.55,2.89-.85,4.55-.85,1.49,0,2.89.21,4.17.68,1.27.47,2.34,1.15,3.23,2.08.89.93,1.49,2.04,1.83,3.36h-4.25c-.3-.98-.89-1.74-1.83-2.29-.93-.55-1.95-.85-3.1-.85-.85,0-1.66.13-2.38.38-.72.25-1.32.64-1.79,1.1-.47.47-.68,1.02-.68,1.66,0,.59.17,1.06.51,1.44s.81.68,1.45.93c.64.26,1.53.47,2.63.68l3.19.68c2.34.51,4.04,1.32,5.1,2.38s1.62,2.51,1.62,4.29c0,1.44-.38,2.68-1.19,3.74s-1.91,1.87-3.36,2.42c-1.44.55-3.1.85-4.97.85-1.7,0-3.23-.3-4.63-.85l-.13.17Z"/>
    <path class="cls-2" d="m435.47,83.52v-5.61h4.5v5.61h-4.5Zm.17,26.69v-22.78h4.17v22.78h-4.17Z"/>
    <path class="cls-2" d="m450.18,109.19c-1.7-.98-2.97-2.38-3.87-4.16s-1.36-3.87-1.36-6.2.47-4.42,1.36-6.21c.89-1.78,2.21-3.19,3.91-4.16s3.65-1.49,5.86-1.49,4.17.51,5.82,1.49,2.93,2.38,3.82,4.16c.89,1.79,1.36,3.87,1.36,6.21s-.47,4.42-1.36,6.2-2.17,3.19-3.82,4.16c-1.66.98-3.61,1.49-5.82,1.49s-4.16-.51-5.86-1.49h-.04Zm9.43-2.46c1.02-.72,1.79-1.74,2.34-3.06.55-1.32.81-2.89.81-4.67s-.25-3.36-.81-4.67c-.55-1.32-1.32-2.34-2.34-3.06s-2.25-1.11-3.65-1.11-2.63.34-3.66,1.06c-1.02.72-1.78,1.74-2.34,3.06s-.81,2.85-.81,4.63.25,3.31.81,4.63,1.36,2.34,2.38,3.06,2.25,1.06,3.65,1.06,2.63-.38,3.66-1.11l-.04.17Z"/>
    <path class="cls-2" d="m487.88,88.15c1.19.81,2.08,1.87,2.68,3.23.6,1.36.89,2.89.89,4.63v14.19h-4.16v-13.56c0-2.25-.47-3.91-1.4-5.01-.94-1.1-2.25-1.66-4-1.66s-3.06.55-3.99,1.66c-.94,1.11-1.4,2.8-1.4,5.06v13.47h-4.17v-22.78h4.17v4.63c.55-1.49,1.44-2.72,2.63-3.65,1.19-.94,2.68-1.4,4.5-1.4,1.66,0,3.1.38,4.29,1.19h-.04Z"/>
    <path class="cls-2" d="m504.75,110.21l14.24-32.3h4.5l-14.24,32.3h-4.5Z"/>
    <path class="cls-2" d="m560.12,110.21l-3.48-9.77h-15.85l-3.49,9.77h-4.59l11.6-32.3h8.8l11.6,32.3h-4.59Zm-17.98-13.6h13.13l-6.54-18.53-6.59,18.53Z"/>
    <path class="cls-2" d="m568.88,110.21v-32.3h4.29v32.3h-4.29Z"/>
  </g>
</svg>