<svg viewBox="0 0 267 56" fill="none" xmlns="http://www.w3.org/2000/svg">
  <path d="M69.9971 51.2886V36.2048H71.9877V51.2886H69.9971Z" fill="#425052" />
  <path
    d="M83.904 44.6567V51.2842H81.9726V44.9546C81.9726 42.7913 80.9842 41.8563 79.4491 41.8563C77.914 41.8563 76.9255 42.8096 76.9255 44.9913V51.2842H74.9941V40.6463H76.9255V42.8096C77.3993 41.5584 78.4242 40.4263 80.2417 40.4263C82.6286 40.4263 83.9086 42.2734 83.9086 44.6521L83.904 44.6567Z"
    fill="#425052" />
  <path d="M86.4775 46.4855V44.8584H92.709V46.4855H86.4775Z" fill="#425052" />
  <path
    d="M94.5859 46.7421H96.6585C96.9364 48.7863 98.4943 49.8175 100.508 49.8175C103.15 49.8175 104.589 48.7084 104.589 47.1363C104.589 45.4909 103.386 45.0921 100.981 44.5559L99.1092 44.1388C96.7633 43.6209 95.0642 42.4338 95.0642 40.1696C95.0642 37.768 97.4511 35.9805 100.471 35.9805C103.491 35.9805 105.778 37.6488 106.211 40.1284H104.138C103.664 38.4005 102.284 37.6671 100.471 37.6671C98.6582 37.6671 97.0776 38.5792 97.0776 39.968C97.0776 41.3567 98.0433 41.8746 100.353 42.388L102.225 42.8051C105.24 43.4788 106.602 44.5513 106.602 46.9117C106.602 49.6113 104.175 51.4951 100.508 51.4951C97.3327 51.4951 95.0415 49.6892 94.5905 46.733L94.5859 46.7421Z"
    fill="#425052" />
  <path
    d="M114.4 49.8176V51.2842H113.02C111.184 51.2842 109.745 50.3905 109.745 48.3647V42.113H107.518V40.6463H109.745V38.1255H111.676V40.6463H114.359V42.113H111.676V48.3647C111.676 49.4967 112.25 49.813 113.216 49.813H114.4V49.8176Z"
    fill="#425052" />
  <path
    d="M115.213 45.9673C115.213 42.6719 117.226 40.4307 120.36 40.4307C123.494 40.4307 125.489 42.6719 125.489 45.9673C125.489 49.2627 123.499 51.504 120.36 51.504C117.222 51.504 115.213 49.2627 115.213 45.9673ZM123.517 45.9673C123.517 43.4648 122.374 41.8607 120.36 41.8607C118.347 41.8607 117.185 43.4694 117.185 45.9673C117.185 48.4652 118.351 50.074 120.36 50.074C122.369 50.074 123.517 48.4652 123.517 45.9673Z"
    fill="#425052" />
  <path
    d="M129.575 42.9288C130.049 41.4392 131.092 40.4263 133.046 40.4263V42.3513H132.454C130.522 42.3513 129.575 42.9654 129.575 44.8721V51.2842H127.644V40.6463H129.575V42.9288Z"
    fill="#425052" />
  <path
    d="M143.846 46.5451H135.856C136.015 48.846 137.177 50.0789 138.935 50.0789C140.475 50.0789 141.281 49.3639 141.677 48.1722H143.65C143.039 50.4364 141.322 51.5089 138.935 51.5089C135.737 51.5089 133.906 49.1668 133.906 45.9722C133.906 42.7776 135.778 40.4355 138.917 40.4355C141.878 40.4355 143.887 42.5393 143.887 45.8164C143.887 46.0135 143.868 46.293 143.846 46.5497V46.5451ZM135.874 45.0785H141.91C141.791 43.1718 140.648 41.861 138.912 41.861C137.177 41.861 136.111 42.9518 135.874 45.0785Z"
    fill="#425052" />
  <path
    d="M163.078 51.2886H160.75L157.143 45.1377H153.553V51.2886H151.562V36.2048H157.083C160.399 36.2048 162.468 37.9511 162.468 40.669C162.468 42.7315 161.265 44.2394 159.252 44.8353L163.078 51.284V51.2886ZM153.549 37.9923V43.3502H157.12C159.151 43.3502 160.395 42.3969 160.395 40.669C160.395 38.9411 159.151 37.9878 157.12 37.9878H153.549V37.9923Z"
    fill="#425052" />
  <path
    d="M173.954 46.5449H165.964C166.124 48.8457 167.285 50.0786 169.044 50.0786C170.583 50.0786 171.389 49.3636 171.786 48.172H173.758C173.148 50.4361 171.43 51.5086 169.044 51.5086C165.846 51.5086 164.015 49.1666 164.015 45.972C164.015 42.7774 165.887 40.4353 169.025 40.4353C171.986 40.4353 173.995 42.5391 173.995 45.8161C173.995 46.0132 173.977 46.2928 173.954 46.5495V46.5449ZM165.982 45.0782H172.018C171.9 43.1716 170.756 41.8607 169.021 41.8607C167.285 41.8607 166.219 42.9516 165.982 45.0782Z"
    fill="#425052" />
  <path
    d="M181.62 49.8173V51.284H180.24C178.404 51.284 176.965 50.3902 176.965 48.3644V42.1127H174.737V40.6461H176.965V38.1252H178.896V40.6461H181.579V42.1127H178.896V48.3644C178.896 49.4965 179.47 49.8127 180.436 49.8127H181.62V49.8173Z"
    fill="#425052" />
  <path
    d="M191.983 44.4413V51.2888H190.052V49.1071C189.323 50.5967 188.453 51.5088 186.403 51.5088C184.353 51.5088 182.854 50.0604 182.854 48.0942C182.854 45.6146 185.319 45.1379 187.214 44.9363L190.056 44.6384V44.4184C190.056 43.0296 189.286 41.8563 187.61 41.8563C186.13 41.8563 185.301 42.7684 185.164 43.7813H183.192C183.428 41.7784 185.123 40.4263 187.61 40.4263C190.826 40.4263 191.988 42.4521 191.988 44.4367L191.983 44.4413ZM190.052 46.765V45.9721L187.943 46.1921C186.48 46.3525 184.827 46.5496 184.827 48.0988C184.827 49.4692 185.893 50.2209 187.114 50.2209C189.068 50.2209 190.052 48.6717 190.052 46.765Z"
    fill="#425052" />
  <path d="M194.571 38.8221V36.2004H196.662V38.8221H194.571ZM194.649 51.2888V40.6509H196.58V51.2888H194.649Z"
    fill="#425052" />
  <path d="M199.333 51.2886V36.2048H201.264V51.2886H199.333Z" fill="#425052" />
  <path
    d="M226.609 51.2886H224.618V36.2644L220.181 51.2886H216.041L211.604 36.2644V51.2886H209.613V36.2048H213.676L218.113 51.229L222.55 36.2048H226.613V51.2886H226.609Z"
    fill="#425052" />
  <path
    d="M239.034 46.5451H231.044C231.204 48.846 232.365 50.0789 234.124 50.0789C235.663 50.0789 236.47 49.3639 236.866 48.1722H238.838C238.228 50.4364 236.511 51.5089 234.124 51.5089C230.926 51.5089 229.095 49.1668 229.095 45.9722C229.095 42.7776 230.967 40.4355 234.105 40.4355C237.066 40.4355 239.075 42.5393 239.075 45.8164C239.075 46.0135 239.057 46.293 239.034 46.5497V46.5451ZM231.063 45.0785H237.098C236.98 43.1718 235.836 41.861 234.101 41.861C232.365 41.861 231.299 42.9518 231.063 45.0785Z"
    fill="#425052" />
  <path
    d="M248.886 36.2004H250.817V51.2842H248.886V48.9604C248.235 50.4867 246.736 51.4996 245.16 51.4996C242.595 51.4996 240.664 49.2354 240.664 45.9629C240.664 42.6904 242.618 40.4263 245.16 40.4263C247.132 40.4263 248.394 41.7967 248.886 43.2267V36.2004ZM248.964 45.9675C248.964 43.465 247.802 41.8609 245.789 41.8609C243.775 41.8609 242.632 43.4696 242.632 45.9675C242.632 48.4654 243.775 50.0742 245.789 50.0742C247.802 50.0742 248.964 48.4654 248.964 45.9675Z"
    fill="#425052" />
  <path d="M253.506 38.8221V36.2004H255.597V38.8221H253.506ZM253.583 51.2888V40.6509H255.515V51.2888H253.583Z"
    fill="#425052" />
  <path
    d="M266.817 44.4413V51.2888H264.886V49.1071C264.157 50.5967 263.287 51.5088 261.237 51.5088C259.187 51.5088 257.688 50.0604 257.688 48.0942C257.688 45.6146 260.153 45.1379 262.048 44.9363L264.89 44.6384V44.4184C264.89 43.0296 264.12 41.8563 262.444 41.8563C260.964 41.8563 260.135 42.7684 259.998 43.7813H258.026C258.262 41.7784 259.957 40.4263 262.444 40.4263C265.66 40.4263 266.822 42.4521 266.822 44.4367L266.817 44.4413ZM264.886 46.765V45.9721L262.777 46.1921C261.319 46.3525 259.661 46.5496 259.661 48.0988C259.661 49.4692 260.727 50.2209 261.948 50.2209C263.902 50.2209 264.886 48.6717 264.886 46.765Z"
    fill="#425052" />
  <path
    d="M84.1776 8.40703H73.974V13.5404H83.0297V17.3262H73.974V22.652H84.1776V26.4699H69.9883V4.58911H84.1776V8.40703Z"
    fill="#0D2126" />
  <path
    d="M86.9482 26.4698V17.9036C86.9482 13.9252 89.4672 11.0698 93.9632 11.0698C98.4591 11.0698 100.946 13.9252 100.946 17.9036V26.4698H96.9286V18.2244C96.9286 16.0107 95.9401 14.6311 93.9632 14.6311C91.9862 14.6311 90.9978 16.0107 90.9978 18.2244V26.4698H86.9482Z"
    fill="#0D2126" />
  <path
    d="M115.229 11.3907H118.673V25.2827C118.673 30.9294 114.879 33.1432 110.988 33.1432C106.684 33.1432 103.942 30.9294 103.368 27.3361H107.322C107.736 28.7477 108.916 29.6782 110.988 29.6782C112.838 29.6782 114.719 28.5873 114.719 25.2827V24.2561C113.699 25.8282 111.977 26.7265 109.904 26.7265C106.461 26.7265 103.049 24.0636 103.049 18.8982C103.049 13.7327 106.461 11.0698 109.904 11.0698C112.104 11.0698 113.89 12.0644 114.879 13.7969L115.229 11.3907ZM114.751 18.8982C114.751 16.0427 112.774 14.5669 110.957 14.5669C108.725 14.5669 107.003 16.2673 107.003 18.8982C107.003 21.529 108.725 23.2294 110.957 23.2294C112.774 23.2294 114.751 21.7536 114.751 18.8982Z"
    fill="#0D2126" />
  <path
    d="M133.118 11.3907H136.562V26.4698H132.99L132.735 24.1598C131.874 25.8282 130.121 26.8227 127.793 26.8227C124.317 26.8227 120.842 24.1277 120.842 18.9302C120.842 13.7327 124.317 11.0698 127.793 11.0698C130.153 11.0698 131.906 12.0644 132.767 13.7648L133.118 11.3907ZM132.672 18.9302C132.672 16.1711 130.695 14.6311 128.845 14.6311C126.581 14.6311 124.828 16.2994 124.828 18.9302C124.828 21.5611 126.613 23.2615 128.845 23.2615C130.758 23.2615 132.672 21.8498 132.672 18.9302Z"
    fill="#0D2126" />
  <path
    d="M151.198 11.3907H154.642V25.2827C154.642 30.9294 150.847 33.1432 146.957 33.1432C142.653 33.1432 139.91 30.9294 139.336 27.3361H143.29C143.705 28.7477 144.885 29.6782 146.957 29.6782C148.807 29.6782 150.688 28.5873 150.688 25.2827V24.2561C149.668 25.8282 147.946 26.7265 145.873 26.7265C142.429 26.7265 139.018 24.0636 139.018 18.8982C139.018 13.7327 142.429 11.0698 145.873 11.0698C148.073 11.0698 149.859 12.0644 150.847 13.7969L151.198 11.3907ZM150.72 18.8982C150.72 16.0427 148.743 14.5669 146.925 14.5669C144.693 14.5669 142.971 16.2673 142.971 18.8982C142.971 21.529 144.693 23.2294 146.925 23.2294C148.743 23.2294 150.72 21.7536 150.72 18.8982Z"
    fill="#0D2126" />
  <path
    d="M171.954 20.3098H160.635C161.113 22.3632 162.548 23.454 164.493 23.454C166.247 23.454 167.235 22.9727 167.841 21.914H171.572C170.647 25.2507 167.618 26.8227 164.589 26.8227C159.933 26.8227 156.809 23.4861 156.809 18.9302C156.809 14.3744 159.997 11.0698 164.493 11.0698C168.989 11.0698 172.018 14.4386 172.018 18.9302C172.018 19.5077 172.018 19.7323 171.954 20.3098ZM160.603 17.4865H168.224C167.969 15.7219 166.438 14.4386 164.493 14.4386C162.548 14.4386 161.049 15.6577 160.603 17.4865Z"
    fill="#0D2126" />
  <path
    d="M42.5372 13.0133H36.3057L27.783 42.9287H34.0145L42.5372 13.0133ZM27.6236 42.9287L19.1009 13.0133H12.8695L21.3921 42.9287H27.6236ZM46.2997 0.46875H9.10234C4.27844 0.46875 0.370117 4.40125 0.370117 9.255V46.6871C0.370117 51.5363 4.27844 55.4688 9.10234 55.4688H46.3043C51.1282 55.4688 55.0365 51.5363 55.0365 46.6825V9.255C55.0365 4.40125 51.1282 0.46875 46.3043 0.46875H46.2997ZM50.8731 51.2887H4.52897V4.65333H50.8776V51.2887H50.8731Z"
    fill="#FC4672" />
</svg>