<svg viewBox="0 0 180 40" fill="none" xmlns="http://www.w3.org/2000/svg">
  <path
    d="M30.8541 9.12257H26.2945L20.0583 30.8774H24.6179L30.8541 9.12257ZM33.6105 0H6.38947C2.85976 0 0 2.85976 0 6.38947V33.6105C0 37.1402 2.85976 40 6.38947 40H33.6105C37.1402 40 40 37.1402 40 33.6105V6.38947C40 2.85976 37.1402 0 33.6105 0ZM36.9569 36.9569H3.04308V3.04308H36.9569V36.9569ZM19.945 30.8774L13.7089 9.12257H9.14924L15.3854 30.8774H19.945Z"
    fill="#0FD0F2" />
  <path d="M51.0125 36.9569V25.9878H52.469V36.9569H51.0125Z" fill="#425052" />
  <path
    d="M54.5488 33.0872C54.5488 30.6908 56.022 29.0609 58.3152 29.0609C60.6083 29.0609 62.0682 30.6908 62.0682 33.0872C62.0682 35.4837 60.6117 37.1136 58.3152 37.1136C56.0187 37.1136 54.5488 35.4837 54.5488 33.0872ZM60.625 33.0872C60.625 31.2674 59.7884 30.1008 58.3152 30.1008C56.842 30.1008 55.992 31.2707 55.992 33.0872C55.992 34.9038 56.8453 36.0737 58.3152 36.0737C59.7851 36.0737 60.625 34.9038 60.625 33.0872Z"
    fill="#425052" />
  <path d="M69.9341 25.9878V27.2877H66.2811V36.9569H64.8212V27.2877H61.1682V25.9878H69.9308H69.9341Z" fill="#425052" />
  <path
    d="M79.2134 25.9878C81.8099 25.9878 83.3831 27.2144 83.3831 29.4242C83.3831 31.634 81.8099 32.8606 79.2134 32.8606H76.6303V36.9602H75.1704V25.9912H79.2134V25.9878ZM79.2567 31.5607C80.9466 31.5607 81.8699 30.8674 81.8699 29.4242C81.8699 27.981 80.9466 27.2877 79.2567 27.2877H76.6303V31.5607H79.2567Z"
    fill="#425052" />
  <path d="M84.6997 36.9569V25.9878H86.1129V36.9569H84.6997Z" fill="#425052" />
  <path
    d="M94.3955 31.9773V36.9569H92.9823V35.3704C92.449 36.4536 91.8124 37.1169 90.3125 37.1169C88.8126 37.1169 87.7161 36.0637 87.7161 34.6338C87.7161 32.8306 89.5192 32.484 90.9058 32.3373L92.9856 32.1207V31.9607C92.9856 30.9508 92.4223 30.0975 91.1958 30.0975C90.1125 30.0975 89.5059 30.7608 89.4059 31.4974H87.9627C88.136 30.0408 89.3759 29.0576 91.1958 29.0576C93.5489 29.0576 94.3988 30.5308 94.3988 31.974L94.3955 31.9773ZM92.9823 33.6672V33.0906L91.4391 33.2506C90.3725 33.3672 89.1593 33.5106 89.1593 34.6371C89.1593 35.6337 89.9392 36.1803 90.8325 36.1803C92.2624 36.1803 92.9823 35.0538 92.9823 33.6672Z"
    fill="#425052" />
  <path
    d="M105.135 27.0544C104.428 27.0544 104.008 27.2844 104.008 28.1377V29.2209H106.001V30.2875H104.008V36.9569H102.595V30.2875H98.3951V34.8338C98.3951 35.657 98.8151 35.887 99.5217 35.887H100.388V36.9536H99.3784C98.0352 36.9536 96.9819 36.3036 96.9819 34.8304V30.2841H95.3521V29.2176H96.9819V27.3844H98.3951V29.2176H102.595V28.1343C102.595 26.6478 103.635 25.9845 104.991 25.9845H106.001V27.0511H105.135V27.0544Z"
    fill="#425052" />
  <path
    d="M106.564 33.0872C106.564 30.6908 108.038 29.0609 110.331 29.0609C112.624 29.0609 114.084 30.6908 114.084 33.0872C114.084 35.4837 112.627 37.1136 110.331 37.1136C108.034 37.1136 106.564 35.4837 106.564 33.0872ZM112.641 33.0872C112.641 31.2674 111.804 30.1008 110.331 30.1008C108.858 30.1008 108.008 31.2707 108.008 33.0872C108.008 34.9038 108.861 36.0737 110.331 36.0737C111.801 36.0737 112.641 34.9038 112.641 33.0872Z"
    fill="#425052" />
  <path
    d="M117.074 30.8808C117.42 29.7975 118.184 29.0609 119.613 29.0609V30.4608H119.18C117.767 30.4608 117.074 30.9074 117.074 32.294V36.9569H115.66V29.2209H117.074V30.8808Z"
    fill="#425052" />
  <path
    d="M131.972 32.134V36.9536H130.559V32.3506C130.559 30.7908 129.953 30.0975 128.826 30.0975C127.699 30.0975 127.093 30.7908 127.093 32.3773V36.9536H125.68V32.3506C125.68 30.7908 125.073 30.0975 123.946 30.0975C122.82 30.0975 122.213 30.7908 122.213 32.3773V36.9536H120.8V29.2176H122.213V30.7908C122.56 29.8675 123.253 29.0576 124.523 29.0576C125.793 29.0576 126.673 29.9942 126.95 30.9908C127.266 30.0542 128.016 29.0576 129.403 29.0576C131.093 29.0576 131.972 30.3408 131.972 32.1307V32.134Z"
    fill="#425052" />
  <path
    d="M66.1775 14.1788V7.94931H69.1406V13.9688C69.1406 15.5553 69.8405 16.5353 71.2404 16.5586C72.7336 16.5819 73.3869 15.602 73.3869 13.9688V7.94931H76.35V14.2021C76.35 17.0019 74.2735 19.195 71.2404 19.1717C67.9973 19.1484 66.1775 17.0719 66.1775 14.1788Z"
    fill="#0D2126" />
  <path
    d="M77.8899 15.6254H80.503C80.643 16.4653 81.5163 16.8619 82.3328 16.8619C83.1494 16.8619 83.7661 16.4653 83.7661 15.9287C83.7661 14.1555 78.1665 15.2521 78.1665 11.0057C78.1665 9.18589 79.6831 7.71601 82.1562 7.71601C84.5593 7.69268 86.1925 8.97591 86.3558 11.1224H83.7427C83.6261 10.4691 83.0328 10.0258 82.2395 10.0258C81.4463 10.0258 80.8996 10.4458 80.8996 11.0057C80.8996 12.7089 86.5692 11.729 86.5692 15.9287C86.5692 17.8885 84.656 19.1717 82.4162 19.1717C79.8731 19.1717 78.0532 17.7018 77.8899 15.6254Z"
    fill="#0D2126" />
  <path
    d="M93.1021 13.4322C93.1021 10.1891 95.5518 7.716 98.9582 7.716C102.365 7.716 104.814 10.1891 104.814 13.4322C104.814 16.6753 102.365 19.1717 98.9582 19.1717C95.5518 19.1717 93.1021 16.6753 93.1021 13.4322ZM101.898 13.4322C101.898 11.589 100.661 10.2825 98.9582 10.2825C97.255 10.2825 96.0185 11.589 96.0185 13.4322C96.0185 15.2754 97.255 16.5819 98.9582 16.5819C100.661 16.5819 101.898 15.2987 101.898 13.4322Z"
    fill="#0D2126" />
  <path
    d="M106.281 18.9117V12.6823C106.281 9.78917 108.124 7.71268 111.414 7.71268C114.703 7.71268 116.523 9.78917 116.523 12.6823V18.9117H113.583V12.9156C113.583 11.3057 112.86 10.3025 111.414 10.3025C109.967 10.3025 109.244 11.3057 109.244 12.9156V18.9117H106.281Z"
    fill="#0D2126" />
  <path d="M66.1508 2.99973L61.5879 18.9117H58.2515L62.8144 2.99973H66.1508Z" fill="#0D2126" />
  <path d="M54.8352 18.9117L50.2722 2.99973H53.6086L58.1716 18.9117H54.8352Z" fill="#0D2126" />
  <path
    d="M88.0391 4.40295C88.0391 3.3997 88.879 2.5831 89.9056 2.5831C90.9322 2.5831 91.7488 3.3997 91.7488 4.40295C91.7488 5.4062 90.9088 6.19946 89.9056 6.19946C88.9023 6.19946 88.0391 5.4062 88.0391 4.40295ZM88.4357 18.9117V7.94932H91.3755V18.9117H88.4357Z"
    fill="#0D2126" />
  <path
    d="M121.146 10.9757C121.146 6.37945 124.576 2.80975 129.126 2.80975C132.555 2.80975 135.448 4.93291 136.288 8.03598H133.979C133.185 6.12281 131.319 4.86292 129.126 4.86292C125.836 4.86292 123.386 7.52269 123.386 10.9757C123.386 14.4288 125.836 17.0886 129.126 17.0886C131.319 17.0886 133.185 15.8287 133.979 13.9155H136.288C135.448 17.0186 132.555 19.1417 129.126 19.1417C124.576 19.1417 121.146 15.572 121.146 10.9757Z"
    fill="#0D2126" />
  <path d="M138.948 18.9117V3.04639H141.094V18.9117H138.948Z" fill="#0D2126" />
  <path
    d="M143.521 13.4489C143.521 10.2525 145.947 7.75601 149.167 7.75601C152.387 7.75601 154.813 10.2525 154.813 13.4489C154.813 16.6453 152.387 19.1417 149.167 19.1417C145.947 19.1417 143.521 16.6453 143.521 13.4489ZM152.667 13.4489C152.667 11.2791 151.174 9.71585 149.167 9.71585C147.161 9.71585 145.667 11.2791 145.667 13.4489C145.667 15.6187 147.161 17.1819 149.167 17.1819C151.174 17.1819 152.667 15.6187 152.667 13.4489Z"
    fill="#0D2126" />
  <path
    d="M156.797 14.4521V7.98932H158.943V14.2888C158.943 16.062 159.76 17.1352 161.44 17.1352C163.119 17.1352 163.936 16.062 163.936 14.2888V7.98932H166.083V14.4521C166.083 17.1819 164.309 19.1417 161.44 19.1417C158.57 19.1417 156.797 17.1819 156.797 14.4521Z"
    fill="#0D2126" />
  <path
    d="M177.002 3.04306H179.148V18.9084H177.258L177.072 17.2519C176.278 18.4884 174.878 19.1417 173.315 19.1417C170.562 19.1417 168.066 17.0652 168.066 13.4489C168.066 9.8325 170.562 7.756 173.315 7.756C174.832 7.756 176.208 8.36262 177.002 9.52919V3.04306ZM177.072 13.4489C177.072 11.1391 175.438 9.71584 173.619 9.71584C171.799 9.71584 170.212 11.0691 170.212 13.4489C170.212 15.8287 171.775 17.1819 173.619 17.1819C175.462 17.1819 177.072 15.7587 177.072 13.4489Z"
    fill="#0D2126" />
</svg>