<svg xmlns="http://www.w3.org/2000/svg" viewBox="0 0 233 56" fill="none">
  <g clip-path="url(#clip0_3616_7824)">
    <path
      d="M70.2822 26.4699V4.58911H75.9501L81.2657 17.7112C81.746 18.8983 82.1943 20.0533 82.4825 21.0799H82.5466C82.8348 20.0533 83.2831 18.8983 83.7634 17.7112L89.079 4.58911H94.7469V26.4745H90.6161V11.8124C90.6161 11.3312 90.6161 10.9462 90.6801 10.3687H90.6161C90.488 10.882 90.3279 11.3312 90.1037 11.8766L84.2117 26.2179H80.8174L74.9254 11.8766C74.7012 11.3312 74.5411 10.882 74.381 10.3687H74.317C74.381 10.9462 74.381 11.3312 74.381 11.8124V26.4745H70.2822V26.4699Z"
      fill="#0D2126" />
    <path
      d="M112.582 20.3098H101.215C101.695 22.3632 103.136 23.454 105.089 23.454C106.851 23.454 107.843 22.9727 108.452 21.914H112.198C111.27 25.2507 108.227 26.8227 105.185 26.8227C100.51 26.8227 97.3721 23.4861 97.3721 18.9302C97.3721 14.3744 100.574 11.0698 105.089 11.0698C109.604 11.0698 112.646 14.4386 112.646 18.9302C112.646 19.5077 112.646 19.7323 112.582 20.3098ZM101.183 17.4865H108.836C108.58 15.7219 107.043 14.4386 105.089 14.4386C103.136 14.4386 101.631 15.6577 101.183 17.4865Z"
      fill="#0D2126" />
    <path
      d="M114.762 26.4698V17.9036C114.762 13.7327 117.067 11.0698 121.358 11.0698C124.336 11.0698 125.873 12.8665 126.386 13.7969H126.45C126.962 12.8665 128.531 11.0698 131.509 11.0698C135.8 11.0698 138.106 13.7327 138.106 17.9036V26.4698H134.039V18.2244C134.039 16.0107 133.142 14.6311 131.253 14.6311C129.364 14.6311 128.467 16.0107 128.467 18.2244V26.4698H124.4V18.2244C124.4 16.0107 123.504 14.6311 121.614 14.6311C119.725 14.6311 118.828 16.0107 118.828 18.2244V26.4698H114.762Z"
      fill="#0D2126" />
    <path
      d="M140.216 18.9302C140.216 14.4707 143.578 11.0698 148.253 11.0698C152.928 11.0698 156.291 14.4707 156.291 18.9302C156.291 23.3898 152.928 26.8227 148.253 26.8227C143.578 26.8227 140.216 23.3898 140.216 18.9302ZM152.288 18.9302C152.288 16.3957 150.591 14.599 148.253 14.599C145.916 14.599 144.219 16.3957 144.219 18.9302C144.219 21.4648 145.916 23.2615 148.253 23.2615C150.591 23.2615 152.288 21.4969 152.288 18.9302Z"
      fill="#0D2126" />
    <path
      d="M158.404 26.4698V17.5827C158.404 13.9573 160.518 11.0698 164.745 11.0698C165.513 11.0698 166.09 11.134 166.762 11.2944V14.9519C166.282 14.9198 165.865 14.9198 165.673 14.9198C163.432 14.9198 162.471 15.9465 162.471 18.0319V26.4698H158.404Z"
      fill="#0D2126" />
    <path
      d="M178.707 11.3906H183.126L174.897 32.8223H170.382L173.135 26.5019L167.275 11.3906H171.79L174.64 20.021C174.929 20.8552 175.089 21.6252 175.217 22.5556H175.281C175.409 21.6252 175.601 20.8552 175.857 20.021L178.707 11.3906Z"
      fill="#0D2126" />
    <path
      d="M81.8555 51.2886H79.5179L75.8948 45.1377H72.2901V51.2886H70.291V36.2048H75.8354C79.1656 36.2048 81.2425 37.9511 81.2425 40.669C81.2425 42.7315 80.0348 44.2394 78.0128 44.8353L81.8555 51.284V51.2886ZM72.2855 37.9923V43.3502H75.872C77.9122 43.3502 79.1611 42.3969 79.1611 40.669C79.1611 38.9411 77.9122 37.9878 75.872 37.9878H72.2855V37.9923Z"
      fill="#425052" />
    <path
      d="M92.3896 46.5451H84.3658C84.5259 48.846 85.6924 50.0789 87.4536 50.0789C88.9998 50.0789 89.8095 49.3639 90.2075 48.1722H92.1883C91.5753 50.4364 89.8507 51.5089 87.4536 51.5089C84.2469 51.5089 82.4033 49.1668 82.4033 45.9722C82.4033 42.7776 84.2835 40.4355 87.4353 40.4355C90.4088 40.4355 92.4262 42.5393 92.4262 45.8164C92.4262 46.0135 92.4078 46.293 92.385 46.5497L92.3896 46.5451ZM84.3887 45.0785H90.4499C90.331 43.1718 89.1828 41.861 87.4399 41.861C85.697 41.861 84.6265 42.9518 84.3887 45.0785Z"
      fill="#425052" />
    <path
      d="M99.8965 49.8173V51.284H98.5104C96.6669 51.284 95.2213 50.3902 95.2213 48.3644V42.1127H92.9844V40.6461H95.2213V38.1252H97.1609V40.6461H99.8553V42.1127H97.1609V48.3644C97.1609 49.4965 97.7373 49.8127 98.7071 49.8127H99.8965V49.8173Z"
      fill="#425052" />
    <path
      d="M110.31 44.4413V51.2888H108.37V49.1071C107.638 50.5967 106.765 51.5088 104.706 51.5088C102.648 51.5088 101.143 50.0604 101.143 48.0942C101.143 45.6146 103.617 45.1379 105.52 44.9363L108.375 44.6384V44.4184C108.375 43.0296 107.602 41.8563 105.918 41.8563C104.432 41.8563 103.599 42.7684 103.462 43.7813H101.481C101.719 41.7784 103.421 40.4263 105.918 40.4263C109.148 40.4263 110.315 42.4521 110.315 44.4367L110.31 44.4413ZM108.37 46.765V45.9721L106.252 46.1921C104.788 46.3525 103.123 46.5496 103.123 48.0988C103.123 49.4692 104.194 50.2209 105.42 50.2209C107.382 50.2209 108.37 48.6717 108.37 46.765Z"
      fill="#425052" />
    <path d="M112.905 38.8221V36.2004H115.005V38.8221H112.905ZM112.983 51.2888V40.6509H114.923V51.2888H112.983Z"
      fill="#425052" />
    <path d="M117.684 51.2886V36.2048H119.623V51.2886H117.684Z" fill="#425052" />
    <path d="M128.004 51.2886V36.2048H130.003V51.2886H128.004Z" fill="#425052" />
    <path
      d="M141.769 44.6567V51.2842H139.829V44.9546C139.829 42.7913 138.837 41.8563 137.295 41.8563C135.754 41.8563 134.761 42.8096 134.761 44.9913V51.2842H132.821V40.6463H134.761V42.8096C135.237 41.5584 136.266 40.4263 138.091 40.4263C140.488 40.4263 141.774 42.2734 141.774 44.6521L141.769 44.6567Z"
      fill="#425052" />
    <path
      d="M149.749 49.8173V51.284H148.363C146.519 51.284 145.074 50.3902 145.074 48.3644V42.1127H142.837V40.6461H145.074V38.1252H147.013V40.6461H149.708V42.1127H147.013V48.3644C147.013 49.4965 147.59 49.8127 148.56 49.8127H149.749V49.8173Z"
      fill="#425052" />
    <path
      d="M160.579 46.5449H152.555C152.715 48.8457 153.882 50.0786 155.643 50.0786C157.189 50.0786 157.999 49.3636 158.397 48.172H160.378C159.765 50.4361 158.04 51.5086 155.643 51.5086C152.436 51.5086 150.593 49.1666 150.593 45.972C150.593 42.7774 152.473 40.4353 155.625 40.4353C158.598 40.4353 160.616 42.5391 160.616 45.8161C160.616 46.0132 160.597 46.2928 160.574 46.5495L160.579 46.5449ZM152.578 45.0782H158.639C158.52 43.1716 157.372 41.8607 155.629 41.8607C153.886 41.8607 152.816 42.9516 152.578 45.0782Z"
      fill="#425052" />
    <path d="M162.796 51.2886V36.2048H164.736V51.2886H162.796Z" fill="#425052" />
    <path d="M167.486 51.2886V36.2048H169.426V51.2886H167.486Z" fill="#425052" />
    <path d="M172.111 38.8221V36.2004H174.211V38.8221H172.111ZM172.189 51.2888V40.6509H174.129V51.2888H172.189Z"
      fill="#425052" />
    <path
      d="M184.558 40.6463H186.497V51.3254C186.497 54.1625 184.119 55.3954 181.644 55.3954C179.169 55.3954 177.069 54.1854 176.831 51.8617H178.812C178.991 53.2504 180.217 53.9654 181.644 53.9654C183.268 53.9654 184.558 53.1129 184.558 51.3667V48.745C183.904 50.2529 182.399 51.2246 180.816 51.2246C178.24 51.2246 176.301 49.1025 176.301 45.8254C176.301 42.5484 178.263 40.4263 180.816 40.4263C182.797 40.4263 184.064 41.7371 184.558 43.1671V40.6463ZM184.636 45.8254C184.636 43.3229 183.469 41.8563 181.447 41.8563C179.425 41.8563 178.277 43.3229 178.277 45.8254C178.277 48.3279 179.425 49.7946 181.447 49.7946C183.469 49.7946 184.636 48.3279 184.636 45.8254Z"
      fill="#425052" />
    <path
      d="M198.467 46.5451H190.443C190.603 48.846 191.77 50.0789 193.531 50.0789C195.077 50.0789 195.887 49.3639 196.285 48.1722H198.265C197.652 50.4364 195.928 51.5089 193.531 51.5089C190.324 51.5089 188.48 49.1668 188.48 45.9722C188.48 42.7776 190.361 40.4355 193.512 40.4355C196.486 40.4355 198.503 42.5393 198.503 45.8164C198.503 46.0135 198.485 46.293 198.462 46.5497L198.467 46.5451ZM190.466 45.0785H196.527C196.408 43.1718 195.26 41.861 193.517 41.861C191.774 41.861 190.704 42.9518 190.466 45.0785Z"
      fill="#425052" />
    <path
      d="M209.44 44.6567V51.2842H207.5V44.9546C207.5 42.7913 206.508 41.8563 204.966 41.8563C203.424 41.8563 202.432 42.8096 202.432 44.9913V51.2842H200.492V40.6463H202.432V42.8096C202.908 41.5584 203.937 40.4263 205.762 40.4263C208.159 40.4263 209.445 42.2734 209.445 44.6521L209.44 44.6567Z"
      fill="#425052" />
    <path
      d="M211.297 45.9673C211.297 42.6719 213.319 40.4307 216.466 40.4307C219.083 40.4307 220.803 42.0165 221.26 44.2623H219.279C218.982 42.9515 218.072 41.8607 216.466 41.8607C214.444 41.8607 213.278 43.4694 213.278 45.9673C213.278 48.4652 214.449 50.074 216.466 50.074C218.012 50.074 218.964 49.2398 219.398 47.7319H221.379C220.826 50.1748 218.881 51.504 216.466 51.504C213.319 51.504 211.297 49.2627 211.297 45.9673Z"
      fill="#425052" />
    <path
      d="M232.552 46.5451H224.528C224.688 48.846 225.855 50.0789 227.616 50.0789C229.162 50.0789 229.972 49.3639 230.37 48.1722H232.35C231.737 50.4364 230.013 51.5089 227.616 51.5089C224.409 51.5089 222.565 49.1668 222.565 45.9722C222.565 42.7776 224.446 40.4355 227.597 40.4355C230.571 40.4355 232.588 42.5393 232.588 45.8164C232.588 46.0135 232.57 46.293 232.547 46.5497L232.552 46.5451ZM224.551 45.0785H230.612C230.493 43.1718 229.345 41.861 227.602 41.861C225.859 41.861 224.789 42.9518 224.551 45.0785Z"
      fill="#425052" />
    <path
      d="M42.7167 13.0133H36.4587L27.8997 42.9287H34.1577L42.7167 13.0133ZM27.7396 42.9287L19.1806 13.0133H12.9227L21.4816 42.9287H27.7396ZM46.4953 0.46875H9.13952C4.29508 0.46875 0.370117 4.40125 0.370117 9.255V46.6871C0.370117 51.5363 4.29508 55.4688 9.13952 55.4688H46.4998C51.3443 55.4688 55.2692 51.5363 55.2692 46.6825V9.255C55.2692 4.40125 51.3443 0.46875 46.4998 0.46875H46.4953ZM51.0881 51.2887H4.54668V4.65333H51.0927V51.2887H51.0881Z"
      fill="#FA614C" />
  </g>
  <defs>
    <clipPath id="clip0_3616_7824">
      <rect width="232.222" height="55" fill="white" transform="translate(0.370117 0.46875)" />
    </clipPath>
  </defs>
</svg>