<svg xmlns="http://www.w3.org/2000/svg" viewBox="0 0 205 56" fill="none">
  <g clip-path="url(#clip0_3616_7949)">
    <path d="M70.2803 51.2888V36.2051H72.2791V51.2888H70.2803Z" fill="#425052" />
    <path
      d="M84.2454 44.6567V51.2842H82.3061V44.9546C82.3061 42.7913 81.3135 41.8563 79.7721 41.8563C78.2307 41.8563 77.2382 42.8096 77.2382 44.9913V51.2842H75.2988V40.6463H77.2382V42.8096C77.7139 41.5584 78.743 40.4263 80.568 40.4263C82.9647 40.4263 84.25 42.2734 84.25 44.6521L84.2454 44.6567Z"
      fill="#425052" />
    <path
      d="M94.4044 36.2004H96.3437V51.2842H94.4044V48.9604C93.7503 50.4867 92.2455 51.4996 90.6629 51.4996C88.0878 51.4996 86.1484 49.2354 86.1484 45.9629C86.1484 42.6904 88.1107 40.4263 90.6629 40.4263C92.6434 40.4263 93.9104 41.7967 94.4044 43.2267V36.2004ZM94.4821 45.9675C94.4821 43.465 93.3158 41.8609 91.2941 41.8609C89.2724 41.8609 88.1244 43.4696 88.1244 45.9675C88.1244 48.4654 89.2724 50.0742 91.2941 50.0742C93.3158 50.0742 94.4821 48.4654 94.4821 45.9675Z"
      fill="#425052" />
    <path
      d="M105.948 40.6462H107.888V51.2842H105.948V49.1621C105.491 50.3721 104.443 51.5042 102.683 51.5042C100.286 51.5042 99.0371 49.6571 99.0371 47.2783V40.6508H100.976V46.9804C100.976 49.1254 101.928 50.0787 103.474 50.0787C105.02 50.0787 105.948 49.1071 105.948 46.9437V40.6508V40.6462Z"
      fill="#425052" />
    <path
      d="M109.94 48.1722H111.921C112.218 49.6801 113.366 50.0788 114.436 50.0788C116.101 50.0788 116.952 49.4417 116.952 48.4701C116.952 47.4984 116.398 47.063 114.811 46.7238L113.325 46.4076C111.482 46.0088 110.215 45.1747 110.215 43.5476C110.215 41.6638 112.076 40.4309 114.395 40.4309C116.453 40.4309 118.219 41.3842 118.695 43.3092H116.714C116.417 42.3742 115.429 41.8609 114.395 41.8609C113.247 41.8609 112.136 42.3972 112.136 43.3505C112.136 44.203 112.831 44.5009 114.253 44.7988L115.74 45.1151C117.958 45.5917 118.868 46.5817 118.868 48.2317C118.868 50.2759 117.048 51.5088 114.432 51.5088C112.076 51.5088 110.233 50.3584 109.936 48.1722H109.94Z"
      fill="#425052" />
    <path
      d="M126.541 49.8176V51.2842H125.155C123.312 51.2842 121.867 50.3905 121.867 48.3647V42.113H119.63V40.6463H121.867V38.1255H123.806V40.6463H126.5V42.113H123.806V48.3647C123.806 49.4967 124.382 49.813 125.352 49.813H126.541V49.8176Z"
      fill="#425052" />
    <path
      d="M130.365 42.9288C130.841 41.4392 131.888 40.4263 133.85 40.4263V42.3513H133.256C131.316 42.3513 130.365 42.9654 130.365 44.8721V51.2842H128.426V40.6463H130.365V42.9288Z"
      fill="#425052" />
    <path d="M135.399 38.8221V36.2004H137.499V38.8221H135.399ZM135.477 51.2888V40.6509H137.417V51.2888H135.477Z"
      fill="#425052" />
    <path
      d="M148.766 44.4413V51.2888H146.826V49.1071C146.095 50.5967 145.221 51.5088 143.163 51.5088C141.104 51.5088 139.6 50.0604 139.6 48.0942C139.6 45.6146 142.074 45.1379 143.977 44.9363L146.831 44.6384V44.4184C146.831 43.0296 146.058 41.8563 144.375 41.8563C142.888 41.8563 142.056 42.7684 141.919 43.7813H139.938C140.176 41.7784 141.877 40.4263 144.375 40.4263C147.604 40.4263 148.77 42.4521 148.77 44.4367L148.766 44.4413ZM146.826 46.765V45.9721L144.709 46.1921C143.245 46.3525 141.58 46.5496 141.58 48.0988C141.58 49.4692 142.65 50.2209 143.876 50.2209C145.838 50.2209 146.826 48.6717 146.826 46.765Z"
      fill="#425052" />
    <path d="M151.47 51.2888V36.2051H153.409V51.2888H151.47Z" fill="#425052" />
    <path d="M161.786 51.2888V36.2051H163.785V51.2888H161.786Z" fill="#425052" />
    <path
      d="M166.642 45.9676C166.642 42.6722 168.663 40.4309 171.81 40.4309C174.957 40.4309 176.96 42.6722 176.96 45.9676C176.96 49.263 174.962 51.5042 171.81 51.5042C168.659 51.5042 166.642 49.263 166.642 45.9676ZM174.98 45.9676C174.98 43.4651 173.832 41.8609 171.81 41.8609C169.788 41.8609 168.622 43.4697 168.622 45.9676C168.622 48.4655 169.788 50.0742 171.81 50.0742C173.832 50.0742 174.98 48.4655 174.98 45.9676Z"
      fill="#425052" />
    <path d="M187.754 36.2004V37.9879H182.741V51.2842H180.743V37.9879H175.729V36.2004H187.754Z" fill="#425052" />
    <path
      d="M86.4504 11.487C86.4504 15.9787 83.1206 18.417 79.1504 18.417H74.2838V26.4699H70.1855V4.58911H79.1504C83.1206 4.58911 86.4504 6.99536 86.4504 11.487ZM78.5101 14.5349C80.7833 14.5349 82.2881 13.4441 82.2881 11.487C82.2881 9.52994 80.7833 8.47119 78.5421 8.47119H74.2838V14.5349H78.5101Z"
      fill="#0D2126" />
    <path
      d="M107.935 15.5295C107.935 21.6574 103.324 26.4699 96.6649 26.4699H89.4609V4.58911H96.6649C103.324 4.58911 107.935 9.40161 107.935 15.5295ZM96.889 22.5879C100.923 22.5879 103.741 19.4437 103.741 15.5295C103.741 11.6154 100.923 8.50328 96.889 8.50328H93.5592V22.5558L96.889 22.5879Z"
      fill="#0D2126" />
    <path
      d="M111.418 6.51422C111.418 5.13464 112.571 4.01172 113.979 4.01172C115.388 4.01172 116.509 5.13464 116.509 6.51422C116.509 7.8938 115.356 8.98464 113.979 8.98464C112.603 8.98464 111.418 7.8938 111.418 6.51422ZM111.962 26.4701V11.3909H115.996V26.4701H111.962Z"
      fill="#0D2126" />
    <path
      d="M134.782 4.65332H137.728V26.47H135.134L134.878 24.1921C133.79 25.8925 131.869 26.7908 129.723 26.7908C125.945 26.7908 122.52 23.9354 122.52 18.9625C122.52 13.9896 125.945 11.1342 129.723 11.1342C131.805 11.1342 133.694 11.9683 134.782 13.5725V4.65332ZM134.878 18.9625C134.878 15.7862 132.637 13.8292 130.14 13.8292C127.642 13.8292 125.465 15.69 125.465 18.9625C125.465 22.235 127.61 24.0958 130.14 24.0958C132.669 24.0958 134.878 22.1387 134.878 18.9625Z"
      fill="#0D2126" />
    <path
      d="M141.148 6.67451C141.148 5.58368 142.013 4.74951 143.069 4.74951C144.126 4.74951 144.991 5.58368 144.991 6.67451C144.991 7.76534 144.126 8.56743 143.069 8.56743C142.013 8.56743 141.148 7.73326 141.148 6.67451ZM141.597 26.4699V11.4549H144.542V26.4699H141.597Z"
      fill="#0D2126" />
    <path
      d="M160.04 11.4549H162.633V25.9565C162.633 31.0578 158.823 33.079 155.397 33.079C151.203 33.079 148.417 31.122 147.809 27.5928H150.915C151.363 29.3895 153.092 30.384 155.397 30.384C157.703 30.384 159.688 29.0365 159.688 25.9565V24.192C158.535 25.8282 156.582 26.6624 154.565 26.6624C150.755 26.6624 147.297 23.839 147.297 18.8982C147.297 13.9574 150.755 11.134 154.565 11.134C156.614 11.134 158.663 12.0324 159.784 13.7328L160.04 11.4549ZM159.784 18.8982C159.784 15.754 157.478 13.829 155.045 13.829C152.612 13.829 150.242 15.6578 150.242 18.8982C150.242 22.1386 152.548 23.9674 155.045 23.9674C157.542 23.9674 159.784 22.0424 159.784 18.8982Z"
      fill="#0D2126" />
    <path
      d="M165.771 6.67476C165.771 5.58392 166.636 4.74976 167.693 4.74976C168.749 4.74976 169.614 5.58392 169.614 6.67476C169.614 7.76559 168.749 8.56767 167.693 8.56767C166.636 8.56767 165.771 7.73351 165.771 6.67476ZM166.22 26.4702V11.4552H169.165V26.4702H166.22Z"
      fill="#0D2126" />
    <path
      d="M181.203 13.9576H176.849V21.2725C176.849 23.39 177.841 23.9996 179.859 23.9996C180.051 23.9996 180.307 23.9996 180.979 23.9676V26.438C180.307 26.5984 179.666 26.6625 179.058 26.6625C176.145 26.6625 173.903 24.8338 173.903 21.6255L173.871 13.9576H171.214V11.4551H173.871V6.41797H176.849V11.4551H181.203V13.9576Z"
      fill="#0D2126" />
    <path
      d="M195.26 11.4551H197.853V26.4701H195.26L195.003 24.1601C193.883 25.8926 191.834 26.7909 189.785 26.7909C185.974 26.7909 182.517 23.9355 182.517 18.9626C182.517 13.9897 185.974 11.1343 189.785 11.1343C191.834 11.1343 193.883 12.0326 195.003 13.7651L195.26 11.4551ZM195.003 18.9626C195.003 15.7864 192.698 13.8293 190.265 13.8293C187.831 13.8293 185.462 15.6901 185.462 18.9626C185.462 22.2351 187.767 24.0959 190.265 24.0959C192.762 24.0959 195.003 22.1389 195.003 18.9626Z"
      fill="#0D2126" />
    <path d="M201.535 26.47V4.65332H204.481V26.47H201.535Z" fill="#0D2126" />
    <path
      d="M27.7359 42.9242L19.1781 13.0133H12.921L21.4788 42.9287H27.7359V42.9242ZM42.7109 13.0133H36.4538L27.896 42.9287H34.1531L42.7109 13.0133ZM46.4889 0.46875H9.13832C4.29454 0.46875 0.370117 4.40125 0.370117 9.255V46.6871C0.370117 51.5363 4.29454 55.4688 9.13832 55.4688H46.4935C51.3373 55.4688 55.2617 51.5363 55.2617 46.6825V9.255C55.2617 4.40125 51.3373 0.46875 46.4935 0.46875H46.4889ZM51.0812 51.2887H4.54153V4.65333H51.0812V51.2887Z"
      fill="#0ED0A0" />
  </g>
  <defs>
    <clipPath id="clip0_3616_7949">
      <rect width="204.111" height="55" fill="white" transform="translate(0.370117 0.46875)" />
    </clipPath>
  </defs>
</svg>