<svg viewBox="0 0 301 56" fill="none" xmlns="http://www.w3.org/2000/svg">
  <g clip-path="url(#clip0_3616_7697)">
    <path
      d="M65.9795 20.4072H70.0492C70.265 22.3994 71.6216 23.8624 73.9648 23.8624C75.8147 23.8624 77.2637 22.8352 77.2637 21.3722C77.2637 16.9832 66.3186 19.3489 66.3186 11.6915C66.3186 8.29856 69.0626 5.55933 73.4715 5.55933C78.4045 5.55933 80.7477 9.04562 80.871 12.2206H76.8013C76.6779 10.5398 75.5064 9.10788 73.4715 9.10788C71.4366 9.10788 70.265 10.2285 70.265 11.6915C70.265 15.8315 81.2101 13.4035 81.2101 21.3722C81.2101 24.983 77.6954 27.4421 73.9648 27.4421C68.3843 27.4421 66.072 23.4577 65.9795 20.4072Z"
      fill="#0D2126" />
    <path
      d="M97.6154 9.57485H87.7494V14.5553H96.5055V18.2283H87.7494V23.3955H97.6154V27.0997H83.8955V5.86621H97.6154V9.5704V9.57485Z"
      fill="#0D2126" />
    <path
      d="M99.6475 20.4072H103.717C103.933 22.3994 105.29 23.8624 107.633 23.8624C109.483 23.8624 110.932 22.8352 110.932 21.3722C110.932 16.9832 99.9866 19.3489 99.9866 11.6915C99.9866 8.29856 102.731 5.55933 107.139 5.55933C112.072 5.55933 114.416 9.04562 114.539 12.2206H110.469C110.346 10.5398 109.174 9.10788 107.139 9.10788C105.105 9.10788 103.933 10.2285 103.933 11.6915C103.933 15.8315 114.878 13.4035 114.878 21.3722C114.878 24.983 111.363 27.4421 107.633 27.4421C102.052 27.4421 99.74 23.4577 99.6475 20.4072Z"
      fill="#0D2126" />
    <path
      d="M119.194 7.89378C119.194 6.83544 120.027 6.02612 121.044 6.02612C122.062 6.02612 122.894 6.83544 122.894 7.89378C122.894 8.95212 122.062 9.73031 121.044 9.73031C120.027 9.73031 119.194 8.921 119.194 7.89378ZM119.626 27.0996V12.5318H122.462V27.0996H119.626Z"
      fill="#0D2126" />
    <path
      d="M125.887 27.0996V18.4772C125.887 14.8353 128.199 12.2206 131.806 12.2206C134.704 12.2206 136.246 14.1816 136.462 14.8664H136.524C136.739 14.1816 138.281 12.2206 141.179 12.2206C144.786 12.2206 147.099 14.8353 147.099 18.4772V27.0996H144.262V18.6951C144.262 16.3294 143.214 14.8976 141.087 14.8976C138.959 14.8976 137.911 16.3294 137.911 18.7574V27.1307H135.074V18.7574C135.074 16.3294 134.026 14.8976 131.899 14.8976C129.771 14.8976 128.723 16.3294 128.723 18.6951V27.0996H125.887Z"
      fill="#0D2126" />
    <path
      d="M161.526 12.5319H164.023V27.0996H161.526L161.279 24.8584C160.2 26.5393 158.227 27.4109 156.254 27.4109C152.585 27.4109 149.255 24.6405 149.255 19.8157C149.255 14.9909 152.585 12.2206 156.254 12.2206C158.227 12.2206 160.2 13.0922 161.279 14.773L161.526 12.5319ZM161.279 19.8157C161.279 16.7341 159.059 14.8353 156.716 14.8353C154.373 14.8353 152.091 16.6407 152.091 19.8157C152.091 22.9907 154.311 24.7962 156.716 24.7962C159.121 24.7962 161.279 22.8974 161.279 19.8157Z"
      fill="#0D2126" />
    <path
      d="M178.79 12.532H181.288V26.6017C181.288 31.551 177.619 33.512 174.32 33.512C170.281 33.512 167.599 31.6132 167.013 28.1892H170.003C170.435 29.9323 172.1 30.8973 174.32 30.8973C176.54 30.8973 178.451 29.5899 178.451 26.6017V24.8897C177.341 26.4772 175.461 27.2865 173.518 27.2865C169.849 27.2865 166.52 24.5473 166.52 19.7536C166.52 14.9599 169.849 12.2207 173.518 12.2207C175.491 12.2207 177.465 13.0923 178.544 14.742L178.79 12.532ZM178.544 19.7536C178.544 16.7031 176.324 14.8354 173.981 14.8354C171.638 14.8354 169.356 16.6097 169.356 19.7536C169.356 22.8975 171.576 24.6718 173.981 24.6718C176.386 24.6718 178.544 22.8041 178.544 19.7536Z"
      fill="#0D2126" />
    <path
      d="M183.323 19.8159C183.323 15.5514 186.53 12.2207 190.784 12.2207C195.039 12.2207 198.246 15.5514 198.246 19.8159C198.246 24.0803 195.039 27.411 190.784 27.411C186.53 27.411 183.323 24.0803 183.323 19.8159ZM195.409 19.8159C195.409 16.921 193.436 14.8354 190.784 14.8354C188.133 14.8354 186.16 16.921 186.16 19.8159C186.16 22.7107 188.133 24.7963 190.784 24.7963C193.436 24.7963 195.409 22.7107 195.409 19.8159Z"
      fill="#0D2126" />
    <path
      d="M208.419 14.9599H204.226V22.057C204.226 24.1114 205.182 24.7029 207.124 24.7029C207.309 24.7029 207.556 24.7029 208.203 24.6717V27.0686C207.556 27.2242 206.939 27.2865 206.353 27.2865C203.548 27.2865 201.39 25.5122 201.39 22.3994L201.359 14.9599H198.8V12.5319H201.359V7.6449H204.226V12.5319H208.419V14.9599Z"
      fill="#0D2126" />
    <path
      d="M221.8 12.5319H224.297V27.0996H221.8L221.553 24.8584C220.474 26.5393 218.501 27.4109 216.528 27.4109C212.859 27.4109 209.529 24.6405 209.529 19.8157C209.529 14.9909 212.859 12.2206 216.528 12.2206C218.501 12.2206 220.474 13.0922 221.553 14.773L221.8 12.5319ZM221.553 19.8157C221.553 16.7341 219.334 14.8353 216.99 14.8353C214.647 14.8353 212.366 16.6407 212.366 19.8157C212.366 22.9907 214.586 24.7962 216.99 24.7962C219.395 24.7962 221.553 22.8974 221.553 19.8157Z"
      fill="#0D2126" />
    <path
      d="M239.068 12.532H241.565V26.6017C241.565 31.551 237.896 33.512 234.597 33.512C230.558 33.512 227.876 31.6132 227.29 28.1892H230.281C230.712 29.9323 232.377 30.8973 234.597 30.8973C236.817 30.8973 238.729 29.5899 238.729 26.6017V24.8897C237.619 26.4772 235.738 27.2865 233.796 27.2865C230.127 27.2865 226.797 24.5473 226.797 19.7536C226.797 14.9599 230.127 12.2207 233.796 12.2207C235.769 12.2207 237.742 13.0923 238.821 14.742L239.068 12.532ZM238.821 19.7536C238.821 16.7031 236.601 14.8354 234.258 14.8354C231.915 14.8354 229.633 16.6097 229.633 19.7536C229.633 22.8975 231.853 24.6718 234.258 24.6718C236.663 24.6718 238.821 22.8041 238.821 19.7536Z"
      fill="#0D2126" />
    <path
      d="M68.7895 49.4449H76.4753V51.1791H66.8604V36.5447H76.3035V38.2789H68.7895V42.7658H76.1714V44.5H68.7895V49.4493V49.4449Z"
      fill="#425052" />
    <path d="M78.6943 51.1792V36.5448H80.5618V51.1792H78.6943Z" fill="#425052" />
    <path
      d="M92.2961 46.5766H84.5707C84.7248 48.8089 85.848 50.0051 87.5481 50.0051C89.0368 50.0051 89.8164 49.3114 90.1996 48.1553H92.1067C91.5165 50.352 89.856 51.3925 87.5481 51.3925C84.4561 51.3925 82.6855 49.1202 82.6855 46.0208C82.6855 42.9214 84.4958 40.649 87.5305 40.649C90.3934 40.649 92.3357 42.6901 92.3357 45.8696C92.3357 46.0608 92.3181 46.3321 92.2961 46.5811V46.5766ZM84.5883 45.1537H90.4242C90.3097 43.3038 89.2042 42.032 87.5261 42.032C85.848 42.032 84.8173 43.0903 84.5883 45.1537Z"
      fill="#425052" />
    <path
      d="M93.8105 46.0164C93.8105 42.8191 95.7573 40.6447 98.7876 40.6447C101.303 40.6447 102.963 42.1832 103.403 44.3622H101.496C101.21 43.0904 100.334 42.0321 98.7876 42.0321C96.8408 42.0321 95.7177 43.5929 95.7177 46.0164C95.7177 48.4399 96.8408 50.0007 98.7876 50.0007C100.276 50.0007 101.192 49.1914 101.611 47.7284H103.518C102.985 50.0986 101.113 51.3881 98.7876 51.3881C95.7529 51.3881 93.8105 49.2137 93.8105 46.0164Z"
      fill="#425052" />
    <path
      d="M110.834 49.7516V51.1746H109.499C107.724 51.1746 106.332 50.3075 106.332 48.342V42.2766H104.179V40.8536H106.332V38.4078H108.2V40.8536H110.794V42.2766H108.2V48.342C108.2 49.4404 108.755 49.7472 109.689 49.7472H110.834V49.7516Z"
      fill="#425052" />
    <path
      d="M114.318 43.0681C114.776 41.6229 115.784 40.6401 117.674 40.6401V42.5078H117.101C115.234 42.5078 114.318 43.1037 114.318 44.9535V51.1746H112.45V40.8536H114.318V43.0681Z"
      fill="#425052" />
    <path
      d="M118.475 46.0163C118.475 42.819 120.421 40.6445 123.452 40.6445C126.482 40.6445 128.411 42.819 128.411 46.0163C128.411 49.2135 126.486 51.388 123.452 51.388C120.417 51.388 118.475 49.2135 118.475 46.0163ZM126.504 46.0163C126.504 43.5883 125.398 42.0319 123.452 42.0319C121.505 42.0319 120.382 43.5928 120.382 46.0163C120.382 48.4398 121.505 50.0006 123.452 50.0006C125.398 50.0006 126.504 48.4398 126.504 46.0163Z"
      fill="#425052" />
    <path
      d="M139.116 44.7445V51.1746H137.249V45.0336C137.249 42.9347 136.293 42.0275 134.809 42.0275C133.324 42.0275 132.368 42.9525 132.368 45.0692V51.1746H130.501V40.8536H132.368V42.9525C132.827 41.7385 133.818 40.6401 135.575 40.6401C137.883 40.6401 139.121 42.4322 139.121 44.7401L139.116 44.7445Z"
      fill="#425052" />
    <path d="M141.613 39.0837V36.5402H143.635V39.0837H141.613ZM141.688 51.1791V40.858H143.556V51.1791H141.688Z"
      fill="#425052" />
    <path
      d="M145.622 46.0163C145.622 42.819 147.569 40.6445 150.599 40.6445C153.114 40.6445 154.775 42.1831 155.215 44.3621H153.308C153.022 43.0903 152.145 42.0319 150.599 42.0319C148.652 42.0319 147.529 43.5928 147.529 46.0163C147.529 48.4398 148.652 50.0006 150.599 50.0006C152.088 50.0006 153.004 49.1913 153.422 47.7283H155.33C154.797 50.0984 152.925 51.388 150.599 51.388C147.564 51.388 145.622 49.2135 145.622 46.0163Z"
      fill="#425052" />
    <path
      d="M161.452 46.7679H163.456C163.724 48.7512 165.231 49.7517 167.173 49.7517C169.728 49.7517 171.119 48.6756 171.119 47.1503C171.119 45.5539 169.957 45.167 167.627 44.6468L165.817 44.2421C163.548 43.7396 161.905 42.5879 161.905 40.3912C161.905 38.061 164.213 36.3268 167.133 36.3268C170.054 36.3268 172.265 37.9454 172.683 40.3511H170.679C170.221 38.6747 168.886 37.9632 167.133 37.9632C165.38 37.9632 163.852 38.8481 163.852 40.1955C163.852 41.5429 164.786 42.0454 167.019 42.5434L168.829 42.9481C171.745 43.6018 173.062 44.6423 173.062 46.9324C173.062 49.5516 170.714 51.3792 167.169 51.3792C164.099 51.3792 161.883 49.6272 161.447 46.759L161.452 46.7679Z"
      fill="#425052" />
    <path
      d="M183.808 44.7445V51.1746H181.941V45.0336C181.941 42.9347 180.985 42.0275 179.501 42.0275C178.017 42.0275 177.061 42.9525 177.061 45.0691V51.1746H175.193V36.5402H177.061V42.9525C177.519 41.7385 178.51 40.6401 180.263 40.6401C182.571 40.6401 183.808 42.4322 183.808 44.7401V44.7445Z"
      fill="#425052" />
    <path
      d="M195.412 46.5768H187.687C187.841 48.8091 188.964 50.0053 190.664 50.0053C192.153 50.0053 192.933 49.3116 193.316 48.1554H195.223C194.633 50.3521 192.972 51.3927 190.664 51.3927C187.572 51.3927 185.802 49.1203 185.802 46.0209C185.802 42.9215 187.612 40.6492 190.647 40.6492C193.51 40.6492 195.452 42.6903 195.452 45.8697C195.452 46.0609 195.434 46.3322 195.412 46.5812V46.5768ZM187.704 45.1538H193.54C193.426 43.3039 192.32 42.0321 190.642 42.0321C188.964 42.0321 187.934 43.0905 187.704 45.1538Z"
      fill="#425052" />
    <path d="M197.548 51.1792V36.5448H199.415V51.1792H197.548Z" fill="#425052" />
    <path
      d="M206.404 37.9678C205.471 37.9678 204.916 38.2746 204.916 39.413V40.8582H207.55V42.2812H204.916V51.1792H203.048V42.2812H200.93V40.8582H203.048V39.413C203.048 37.4297 204.422 36.5448 206.215 36.5448H207.55V37.9678H206.404Z"
      fill="#425052" />
    <path d="M216.304 49.445H222.941V51.1792H214.379V36.5448H216.304V49.445Z" fill="#425052" />
    <path
      d="M233.021 44.5357V51.1792H231.153V49.0625C230.449 50.5077 229.607 51.3926 227.625 51.3926C225.643 51.3926 224.194 49.9874 224.194 48.0798C224.194 45.674 226.577 45.2116 228.409 45.0159L231.158 44.7269V44.5134C231.158 43.166 230.413 42.0277 228.793 42.0277C227.361 42.0277 226.56 42.9126 226.427 43.8953H224.52C224.749 41.9521 226.388 40.6403 228.793 40.6403C231.902 40.6403 233.025 42.6057 233.025 44.5312L233.021 44.5357ZM231.153 46.7902V46.0209L229.114 46.2343C227.705 46.39 226.101 46.5812 226.101 48.0842C226.101 49.4138 227.132 50.1431 228.313 50.1431C230.202 50.1431 231.153 48.6401 231.153 46.7902Z"
      fill="#425052" />
    <path
      d="M245.433 46.0165C245.433 49.196 243.566 51.3882 241.086 51.3882C239.562 51.3882 238.109 50.4055 237.479 48.9247V51.1792H235.611V36.5448H237.479V43.3618C237.955 41.9744 239.175 40.6448 241.086 40.6448C243.548 40.6448 245.433 42.8415 245.433 46.0165ZM243.526 46.0165C243.526 43.5885 242.421 42.0322 240.474 42.0322C238.527 42.0322 237.404 43.593 237.404 46.0165C237.404 48.44 238.532 50.0008 240.474 50.0008C242.416 50.0008 243.526 48.44 243.526 46.0165Z"
      fill="#425052" />
    <path
      d="M256.605 46.5766H248.88C249.034 48.8089 250.157 50.0051 251.853 50.0051C253.341 50.0051 254.121 49.3114 254.504 48.1553H256.411C255.821 50.352 254.161 51.3925 251.853 51.3925C248.765 51.3925 246.99 49.1202 246.99 46.0208C246.99 42.9214 248.8 40.649 251.835 40.649C254.698 40.649 256.64 42.6901 256.64 45.8696C256.64 46.0608 256.623 46.3321 256.601 46.5811L256.605 46.5766ZM248.902 45.1537H254.738C254.623 43.3038 253.518 42.032 251.84 42.032C250.161 42.032 249.131 43.0903 248.902 45.1537Z"
      fill="#425052" />
    <path d="M258.742 51.1791V36.5447H260.61V51.1791H258.742Z" fill="#425052" />
    <path
      d="M262.557 48.1552H264.464C264.751 49.6182 265.856 50.0051 266.887 50.0051C268.49 50.0051 269.309 49.387 269.309 48.4442C269.309 47.5015 268.776 47.0791 267.248 46.75L265.816 46.4432C264.041 46.0563 262.821 45.247 262.821 43.6684C262.821 41.8407 264.614 40.6445 266.847 40.6445C268.829 40.6445 270.529 41.5695 270.987 43.4371H269.08C268.794 42.53 267.838 42.0319 266.847 42.0319C265.742 42.0319 264.671 42.5522 264.671 43.4771C264.671 44.3043 265.341 44.5933 266.711 44.8823L268.142 45.1892C270.278 45.6516 271.155 46.6122 271.155 48.213C271.155 50.1963 269.402 51.3925 266.882 51.3925C264.614 51.3925 262.839 50.2763 262.553 48.1552H262.557Z"
      fill="#425052" />
    <path
      d="M26.9696 43.2251L18.3949 13.3122H12.1254L20.7001 43.2251H26.9696ZM41.9742 13.3122H35.7047L27.13 43.2251H33.3995L41.9742 13.3122ZM45.7643 0.768677H8.33532C3.48198 0.768677 -0.450195 4.70085 -0.450195 9.55419V46.9832C-0.450195 51.8365 3.48198 55.7687 8.33532 55.7687H45.7643C50.6176 55.7687 54.5498 51.8365 54.5498 46.9832V9.55878C54.5498 4.70543 50.6176 0.773259 45.7643 0.773259V0.768677ZM50.3656 51.5844H3.73404V4.95749H50.3656V51.589V51.5844Z"
      fill="#9C65FC" />
  </g>
  <defs>
    <clipPath id="clip0_3616_7697">
      <rect width="300.385" height="55" fill="white" transform="translate(0.370117 0.46875)" />
    </clipPath>
  </defs>
</svg>